# Wavefront OBJ file
# Exported by Misfit Model 3D 1.3.8
# Mon Jan 20 13:53:22 2020

mtllib hb5_head.mtl

# 60 Vertices
v 198.0 258.0 -495.0
v 198.0 258.0 311.0
v 168.0 238.0 280.0
v 168.0 238.0 -495.0
v -181.0 238.0 280.0
v -211.0 258.0 -495.0
v -181.0 238.0 -495.0
v -211.0 258.0 311.0
v 225.0 29.0 203.0
v 226.0 29.0 -495.0
v -239.0 29.0 -495.0
v -240.0 29.0 203.0
v -122.0 415.0 89.0
v -180.0 238.0 280.0
v -172.0 238.0 280.0
v -116.0 415.0 89.0
v -159.0 245.0 291.0
v -113.0 428.0 111.0
v -122.0 486.0 -129.0
v -116.0 481.0 -129.0
v -113.0 494.0 -129.0
v 159.0 238.0 280.0
v 167.0 238.0 280.0
v 110.0 415.0 89.0
v 104.0 415.0 89.0
v 147.0 245.0 291.0
v 100.0 428.0 111.0
v 110.0 486.0 -129.0
v 104.0 481.0 -129.0
v 100.0 494.0 -129.0
v -29.0 494.0 -153.0
v -116.0 495.0 -476.0
v 26.0 494.0 -153.0
v 104.0 495.0 -476.0
v -138.0 396.0 -168.0
v -138.0 364.0 144.0
v -132.0 364.0 144.0
v -132.0 396.0 -168.0
v -128.0 377.0 130.0
v -128.0 409.0 -168.0
v 120.0 364.0 144.0
v 126.0 364.0 144.0
v 126.0 396.0 -168.0
v 120.0 396.0 -168.0
v 116.0 377.0 130.0
v 116.0 409.0 -168.0
v -196.0 144.0 246.0
v -175.0 228.0 273.0
v -88.0 69.0 218.0
v 86.0 69.0 218.0
v 162.0 228.0 273.0
v 183.0 144.0 246.0
v -236.774087 496.072352 -471.544968
v 216.43839 496.072352 -471.544968
v -236.774087 496.072354 -553.424334
v 216.43839 496.072354 -553.424334
v 216.43839 31.907917 -471.544982
v -236.774087 31.907917 -471.544982
v 216.43839 31.907919 -553.424348
v -236.774087 31.907919 -553.424348

# 204 Texture Coordinates
vt 0.939914 0.491416
vt 0.939914 0.491416
vt 0.875537 0.448498
vt 0.939914 0.491416
vt 0.875537 0.448498
vt 0.875537 0.448498
vt 0.126609 0.448498
vt 0.062232 0.491416
vt 0.126609 0.448498
vt 0.062232 0.491416
vt 0.126609 0.448498
vt 0.062232 0.491416
vt 0.126609 0.448498
vt 0.875537 0.448498
vt 0.939914 0.491416
vt 0.126609 0.448498
vt 0.939914 0.491416
vt 0.062232 0.491416
vt 0.875537 0.448498
vt 0.997854 0.0
vt 1.0 0.0
vt 1.0 0.0
vt 0.875537 0.448498
vt 0.875537 0.448498
vt 0.126609 0.448498
vt 0.002146 0.0
vt 0.126609 0.448498
vt 0.0 0.0
vt 0.126609 0.448498
vt 0.002146 0.0
vt 1.0 0.0
vt 0.997854 0.0
vt 0.0 0.0
vt 1.0 0.0
vt 0.0 0.0
vt 0.002146 0.0
vt 0.253219 0.828326
vt 0.128755 0.448498
vt 0.145923 0.448498
vt 0.266094 0.828326
vt 0.253219 0.828326
vt 0.145923 0.448498
vt 0.266094 0.828326
vt 0.145923 0.448498
vt 0.17382 0.463519
vt 0.272532 0.856223
vt 0.266094 0.828326
vt 0.17382 0.463519
vt 0.253219 0.980687
vt 0.253219 0.828326
vt 0.266094 0.828326
vt 0.266094 0.969957
vt 0.253219 0.980687
vt 0.266094 0.828326
vt 0.266094 0.969957
vt 0.266094 0.828326
vt 0.272532 0.856223
vt 0.272532 0.997854
vt 0.266094 0.969957
vt 0.272532 0.856223
vt 0.856223 0.448498
vt 0.873391 0.448498
vt 0.751073 0.828326
vt 0.856223 0.448498
vt 0.751073 0.828326
vt 0.738197 0.828326
vt 0.830472 0.463519
vt 0.856223 0.448498
vt 0.738197 0.828326
vt 0.830472 0.463519
vt 0.738197 0.828326
vt 0.729614 0.856223
vt 0.738197 0.828326
vt 0.751073 0.828326
vt 0.751073 0.980687
vt 0.738197 0.828326
vt 0.751073 0.980687
vt 0.738197 0.969957
vt 0.729614 0.856223
vt 0.738197 0.828326
vt 0.738197 0.969957
vt 0.729614 0.856223
vt 0.738197 0.969957
vt 0.729614 0.997854
vt 0.272532 0.997854
vt 0.45279 0.997854
vt 0.266094 1.0
vt 0.570815 0.997854
vt 0.729614 0.997854
vt 0.738197 1.0
vt 0.266094 1.0
vt 0.45279 0.997854
vt 0.570815 0.997854
vt 0.266094 1.0
vt 0.570815 0.997854
vt 0.738197 1.0
vt 0.218884 0.787554
vt 0.218884 0.718884
vt 0.23176 0.718884
vt 0.23176 0.787554
vt 0.218884 0.787554
vt 0.23176 0.718884
vt 0.23176 0.787554
vt 0.23176 0.718884
vt 0.240343 0.746781
vt 0.240343 0.815451
vt 0.23176 0.787554
vt 0.240343 0.746781
vt 0.772532 0.718884
vt 0.785408 0.718884
vt 0.785408 0.787554
vt 0.772532 0.718884
vt 0.785408 0.787554
vt 0.772532 0.787554
vt 0.763949 0.746781
vt 0.772532 0.718884
vt 0.772532 0.787554
vt 0.763949 0.746781
vt 0.772532 0.787554
vt 0.763949 0.815451
vt 0.729614 0.997854
vt 0.738197 0.969957
vt 0.738197 1.0
vt 0.738197 0.969957
vt 0.763949 0.815451
vt 0.738197 1.0
vt 0.763949 0.815451
vt 0.772532 0.787554
vt 0.738197 1.0
vt 0.272532 0.997854
vt 0.266094 1.0
vt 0.266094 0.969957
vt 0.266094 0.969957
vt 0.266094 1.0
vt 0.240343 0.815451
vt 0.240343 0.815451
vt 0.266094 1.0
vt 0.23176 0.787554
vt 0.126609 0.448498
vt 0.0 0.0
vt 0.094421 0.246781
vt 0.126609 0.448498
vt 0.094421 0.246781
vt 0.139485 0.427039
vt 0.32618 0.085837
vt 0.094421 0.246781
vt 0.0 0.0
vt 0.997854 0.0
vt 0.699571 0.085837
vt 0.32618 0.085837
vt 0.997854 0.0
vt 0.32618 0.085837
vt 0.0 0.0
vt 0.875537 0.448498
vt 0.862661 0.427039
vt 0.907725 0.246781
vt 0.997854 0.0
vt 0.875537 0.448498
vt 0.907725 0.246781
vt 0.139485 0.427039
vt 0.862661 0.427039
vt 0.875537 0.448498
vt 0.139485 0.427039
vt 0.875537 0.448498
vt 0.126609 0.448498
vt 0.699571 0.085837
vt 0.997854 0.0
vt 0.907725 0.246781
vt 1.0 0.0
vt 0.0 0.0
vt 0.0 1.0
vt 1.0 0.0
vt 0.0 0.0
vt 0.0 1.0
vt 1.0 0.0
vt 0.0 0.0
vt 0.0 1.0
vt 1.0 0.0
vt 0.0 0.0
vt 0.0 1.0
vt 0.0 1.0
vt 0.0 0.0
vt 1.0 0.0
vt 0.0 1.0
vt 0.0 0.0
vt 1.0 0.0
vt 0.0 1.0
vt 0.0 0.0
vt 1.0 0.0
vt 0.0 1.0
vt 0.0 0.0
vt 1.0 0.0
vt 0.0 1.0
vt 0.0 0.0
vt 1.0 0.0
vt 0.0 1.0
vt 0.0 0.0
vt 1.0 0.0
vt 0.0 1.0
vt 0.0 0.0
vt 1.0 0.0
vt 0.0 1.0
vt 0.0 0.0
vt 1.0 0.0

# 204 Vertex Normals
vn 0.5547 -0.83205 0.0
vn 0.198657 -0.899862 0.388308
vn 0.441916 -0.621776 0.64661
vn 0.5547 -0.83205 0.0
vn 0.441916 -0.621776 0.64661
vn 0.937282 -0.348572 0.0
vn -0.441628 -0.665049 0.602224
vn -0.5547 -0.83205 0.0
vn -0.937282 -0.348572 0.0
vn -0.5547 -0.83205 0.0
vn -0.441628 -0.665049 0.602224
vn -0.300902 -0.907179 0.294081
vn -0.13118 -0.774107 0.619314
vn 0.132411 -0.732026 0.668285
vn 0.198657 -0.899862 0.388308
vn -0.13118 -0.774107 0.619314
vn 0.198657 -0.899862 0.388308
vn -0.300902 -0.907179 0.294081
vn 0.93685 -0.34973 0.000426
vn 0.964892 0.262643 0.001382
vn 0.964241 0.265025 0.000691
vn 0.964241 0.265025 0.000691
vn 0.937282 -0.348572 0.0
vn 0.93685 -0.34973 0.000426
vn -0.937282 -0.348572 0.0
vn -0.962922 0.269778 -0.000689
vn -0.93771 -0.347418 -0.000426
vn -0.962254 0.272149 -0.001379
vn -0.93771 -0.347418 -0.000426
vn -0.962922 0.269778 -0.000689
vn 0.0 -1.0 0.0
vn 0.012654 -0.536355 0.843898
vn -0.01253 -0.733001 0.680112
vn 0.0 -1.0 0.0
vn -0.01253 -0.733001 0.680112
vn 0.0 -1.0 0.0
vn 0.0 0.822948 0.568116
vn 0.0 0.733477 0.679714
vn -0.238133 0.746194 0.62168
vn -0.464481 0.799599 0.380656
vn 0.0 0.822948 0.568116
vn -0.238133 0.746194 0.62168
vn -0.464481 0.799599 0.380656
vn -0.238133 0.746194 0.62168
vn -0.865668 0.458307 0.201428
vn -0.978355 0.204232 0.033327
vn -0.652546 0.671181 0.35171
vn -0.865668 0.458307 0.201428
vn 0.330326 0.900107 0.284063
vn 0.0 0.822948 0.568116
vn -0.464481 0.799599 0.380656
vn 0.623542 0.74825 0.226534
vn 0.330326 0.900107 0.284063
vn -0.013395 0.885751 0.463967
vn -0.981223 0.190407 0.030754
vn -0.652546 0.671181 0.35171
vn -0.978355 0.204232 0.033327
vn -0.801658 0.597012 0.030345
vn -0.981223 0.190407 0.030754
vn -0.978355 0.204232 0.033327
vn 0.249438 0.74505 0.618612
vn 0.0 0.733477 0.679714
vn 0.0 0.822948 0.568116
vn 0.249438 0.74505 0.618612
vn 0.0 0.822948 0.568116
vn 0.460404 0.802257 0.380015
vn 0.865355 0.458717 0.20184
vn 0.249438 0.74505 0.618612
vn 0.460404 0.802257 0.380015
vn 0.865355 0.458717 0.20184
vn 0.646405 0.676953 0.351988
vn 0.966041 0.252869 0.053123
vn 0.460404 0.802257 0.380015
vn 0.0 0.822948 0.568116
vn -0.330326 0.900107 0.284063
vn 0.021372 0.886973 0.461327
vn -0.330326 0.900107 0.284063
vn -0.623542 0.74825 0.226534
vn 0.966041 0.252869 0.053123
vn 0.646405 0.676953 0.351988
vn 0.970607 0.237341 0.039897
vn 0.966041 0.252869 0.053123
vn 0.970607 0.237341 0.039897
vn 0.76812 0.639153 0.038395
vn -0.801658 0.597012 0.030345
vn 0.000411 0.999995 0.002985
vn -0.620932 0.783725 0.014795
vn -0.00031 0.999995 0.003021
vn 0.76812 0.639153 0.038395
vn 0.725252 0.688266 0.017316
vn -0.620932 0.783725 0.014795
vn 0.000411 0.999995 0.002985
vn -0.00031 0.999995 0.003021
vn -0.620932 0.783725 0.014795
vn -0.00031 0.999995 0.003021
vn 0.725252 0.688266 0.017316
vn 0.0 0.994781 0.102029
vn 0.0 0.994781 0.102029
vn -0.375901 0.921824 0.094546
vn -0.829648 0.554878 0.061594
vn 0.0 0.994781 0.102029
vn -0.375901 0.921824 0.094546
vn -0.829648 0.554878 0.061594
vn -0.375901 0.921824 0.094546
vn -0.950058 0.310372 0.032541
vn -0.967819 0.250118 0.027691
vn -0.829648 0.554878 0.061594
vn -0.950058 0.310372 0.032541
vn 0.375901 0.921824 0.094546
vn 0.0 0.994781 0.102029
vn 0.0 0.994781 0.102029
vn 0.375901 0.921824 0.094546
vn 0.0 0.994781 0.102029
vn 0.829648 0.554878 0.061594
vn 0.950058 0.310372 0.032541
vn 0.375901 0.921824 0.094546
vn 0.829648 0.554878 0.061594
vn 0.950058 0.310372 0.032541
vn 0.829648 0.554878 0.061594
vn 0.967819 0.250118 0.027691
vn 0.76812 0.639153 0.038395
vn 0.970607 0.237341 0.039897
vn 0.725252 0.688266 0.017316
vn 0.970607 0.237341 0.039897
vn 0.967819 0.250118 0.027691
vn 0.725252 0.688266 0.017316
vn 0.967819 0.250118 0.027691
vn 0.829648 0.554878 0.061594
vn 0.725252 0.688266 0.017316
vn -0.801658 0.597012 0.030345
vn -0.620932 0.783725 0.014795
vn -0.981223 0.190407 0.030754
vn -0.981223 0.190407 0.030754
vn -0.620932 0.783725 0.014795
vn -0.967819 0.250118 0.027691
vn -0.967819 0.250118 0.027691
vn -0.620932 0.783725 0.014795
vn -0.829648 0.554878 0.061594
vn -0.13118 -0.774107 0.619314
vn -0.01253 -0.733001 0.680112
vn 0.111006 -0.357047 0.927467
vn -0.13118 -0.774107 0.619314
vn 0.111006 -0.357047 0.927467
vn 0.128815 -0.515652 0.847059
vn -0.000099 -0.350793 0.936453
vn 0.111006 -0.357047 0.927467
vn -0.01253 -0.733001 0.680112
vn 0.012654 -0.536355 0.843898
vn 0.000164 -0.350625 0.936516
vn -0.000099 -0.350793 0.936453
vn 0.012654 -0.536355 0.843898
vn -0.000099 -0.350793 0.936453
vn -0.01253 -0.733001 0.680112
vn 0.132411 -0.732026 0.668285
vn -0.193747 -0.48192 0.854526
vn -0.109541 -0.356897 0.927699
vn 0.012654 -0.536355 0.843898
vn 0.132411 -0.732026 0.668285
vn -0.109541 -0.356897 0.927699
vn 0.128815 -0.515652 0.847059
vn -0.193747 -0.48192 0.854526
vn 0.132411 -0.732026 0.668285
vn 0.128815 -0.515652 0.847059
vn 0.132411 -0.732026 0.668285
vn -0.13118 -0.774107 0.619314
vn 0.000164 -0.350625 0.936516
vn 0.012654 -0.536355 0.843898
vn -0.109541 -0.356897 0.927699
vn 0.0 1.0 0.0
vn 0.0 1.0 0.0
vn 0.0 1.0 0.0
vn 0.0 1.0 0.0
vn -0.0 1.0 0.0
vn 0.0 1.0 0.0
vn -0.0 -1.0 -0.0
vn -0.0 -1.0 -0.0
vn -0.0 -1.0 -0.0
vn -0.0 -1.0 -0.0
vn 0.0 -1.0 -0.0
vn -0.0 -1.0 -0.0
vn -1.0 0.0 0.0
vn -1.0 0.0 0.0
vn -1.0 0.0 0.0
vn -1.0 0.0 0.0
vn -1.0 0.0 0.0
vn -1.0 0.0 0.0
vn 1.0 0.0 -0.0
vn 1.0 0.0 -0.0
vn 1.0 0.0 -0.0
vn 1.0 0.0 -0.0
vn 1.0 0.0 -0.0
vn 1.0 0.0 -0.0
vn 0.0 0.0 -1.0
vn 0.0 0.0 -1.0
vn 0.0 0.0 -1.0
vn 0.0 0.0 -1.0
vn 0.0 0.0 -1.0
vn 0.0 0.0 -1.0
vn 0.0 0.0 1.0
vn 0.0 0.0 1.0
vn 0.0 0.0 1.0
vn 0.0 0.0 1.0
vn 0.0 0.0 1.0
vn 0.0 0.0 1.0

# main, 68 grouped triangles

o main
g main

f 1/1/1 2/2/2 3/3/3
f 1/4/4 3/5/5 4/6/6
f 5/7/7 6/8/8 7/9/9
f 6/10/10 5/11/11 8/12/12
f 5/13/13 3/14/14 2/15/15
f 5/16/16 2/17/17 8/18/18
f 3/19/19 9/20/20 10/21/21
f 10/22/22 4/23/23 3/24/24
f 7/25/25 11/26/26 5/27/27
f 12/28/28 5/29/29 11/30/30
f 10/31/31 9/32/32 12/33/33
f 10/34/34 12/35/35 11/36/36
f 13/37/37 14/38/38 15/39/39
f 16/40/40 13/41/41 15/42/42
f 16/43/43 15/44/44 17/45/45
f 18/46/46 16/47/47 17/48/48
f 19/49/49 13/50/50 16/51/51
f 20/52/52 19/53/53 16/54/54
f 20/55/55 16/56/56 18/57/57
f 21/58/58 20/59/59 18/60/60
f 22/61/61 23/62/62 24/63/63
f 22/64/64 24/65/65 25/66/66
f 26/67/67 22/68/68 25/69/69
f 26/70/70 25/71/71 27/72/72
f 25/73/73 24/74/74 28/75/75
f 25/76/76 28/77/77 29/78/78
f 27/79/79 25/80/80 29/81/81
f 27/82/82 29/83/83 30/84/84
f 21/85/85 31/86/86 32/87/87
f 33/88/88 30/89/89 34/90/90
f 32/91/91 31/92/92 33/93/93
f 32/94/94 33/95/95 34/96/96
f 35/97/97 36/98/98 37/99/99
f 38/100/100 35/101/101 37/102/102
f 38/103/103 37/104/104 39/105/105
f 40/106/106 38/107/107 39/108/108
f 41/109/109 42/110/110 43/111/111
f 41/112/112 43/113/113 44/114/114
f 45/115/115 41/116/116 44/117/117
f 45/118/118 44/119/119 46/120/120
f 30/121/121 29/122/122 34/123/123
f 29/124/124 46/125/125 34/126/126
f 46/127/127 44/128/128 34/129/129
f 21/130/130 32/131/131 20/132/132
f 20/133/133 32/134/134 40/135/135
f 40/136/136 32/137/137 38/138/138
f 5/139/139 12/140/140 47/141/141
f 5/142/142 47/143/143 48/144/144
f 49/145/145 47/146/146 12/147/147
f 9/148/148 50/149/149 49/150/150
f 9/151/151 49/152/152 12/153/153
f 3/154/154 51/155/155 52/156/156
f 9/157/157 3/158/158 52/159/159
f 48/160/160 51/161/161 3/162/162
f 48/163/163 3/164/164 5/165/165
f 50/166/166 9/167/167 52/168/168
f 53/169/169 54/170/170 55/171/171
f 54/172/172 56/173/173 55/174/174
f 57/175/175 58/176/176 59/177/177
f 58/178/178 60/179/179 59/180/180
f 55/181/181 58/182/182 53/183/183
f 55/184/184 60/185/185 58/186/186
f 59/187/187 54/188/188 57/189/189
f 59/190/190 56/191/191 54/192/192
f 55/193/193 59/194/194 60/195/195
f 55/196/196 56/197/197 59/198/198
f 54/199/199 58/200/200 57/201/201
f 54/202/202 53/203/203 58/204/204
