# Wavefront OBJ file
# Exported by Misfit Model 3D 1.3.8
# Mon Jan 20 10:50:56 2020

mtllib gg5_head.mtl

# 85 Vertices
v -240.0 557.0 81.0
v -253.0 618.0 -237.0
v -220.0 501.0 267.0
v 239.0 618.0 -237.0
v 228.0 557.0 81.0
v 219.0 502.0 266.0
v 219.0 501.0 267.0
v -220.0 502.0 266.0
v -218.0 298.0 260.0
v -65.0 316.0 260.0
v -34.0 501.0 267.0
v 62.0 316.0 260.0
v 214.0 298.0 260.0
v 32.0 501.0 267.0
v -223.0 183.0 252.0
v 219.0 183.0 252.0
v 219.0 327.0 259.0
v 239.0 183.0 -237.0
v 219.0 501.0 266.0
v 230.0 356.0 44.0
v 230.0 548.0 98.0
v -253.0 183.0 -237.0
v -241.0 356.0 44.0
v -223.0 327.0 259.0
v -221.0 501.0 266.0
v -237.0 548.0 98.0
v -236.0 565.0 85.0
v 223.0 565.0 85.0
v 211.0 510.0 262.0
v -213.0 510.0 262.0
v -247.0 543.0 102.0
v -234.0 500.0 264.0
v -251.0 359.0 46.0
v -233.0 328.0 257.0
v -217.0 501.0 270.0
v -37.0 501.0 270.0
v -216.0 298.0 261.0
v 35.0 501.0 270.0
v 213.0 501.0 270.0
v 210.0 298.0 261.0
v 65.0 316.0 261.0
v 227.0 500.0 264.0
v 238.0 543.0 102.0
v 238.0 359.0 46.0
v 227.0 328.0 257.0
v -65.0 316.0 261.0
v -31.0 493.0 270.0
v 27.0 493.0 270.0
v 29.0 495.0 266.0
v -32.0 495.0 266.0
v 57.0 320.0 262.0
v 53.0 321.0 264.0
v -56.0 321.0 264.0
v -60.0 320.0 262.0
v 215.0 312.0 259.0
v 56.0 348.0 262.0
v 56.0 347.0 264.0
v 215.0 311.0 261.0
v 215.0 362.0 262.0
v 54.0 359.0 264.0
v 54.0 359.0 262.0
v 215.0 361.0 260.0
v 34.0 474.0 267.0
v 34.0 473.0 265.0
v 126.0 501.0 267.0
v 126.0 501.0 269.0
v 35.0 467.0 265.0
v 35.0 466.0 267.0
v 213.0 500.0 270.0
v 213.0 501.0 268.0
v -129.0 501.0 267.0
v -38.0 473.0 265.0
v -37.0 474.0 267.0
v -129.0 502.0 269.0
v -39.0 466.0 267.0
v -39.0 467.0 265.0
v -217.0 501.0 268.0
v -59.0 347.0 264.0
v -59.0 348.0 262.0
v -218.0 312.0 259.0
v -218.0 311.0 261.0
v -57.0 359.0 262.0
v -57.0 359.0 264.0
v -218.0 362.0 262.0
v -218.0 361.0 260.0

# 342 Texture Coordinates
vt 0.973577 0.85977
vt 1.0 1.0
vt 0.932927 0.731034
vt 0.0 1.0
vt 1.0 1.0
vt 0.973577 0.85977
vt 0.0 1.0
vt 0.973577 0.85977
vt 0.022358 0.85977
vt 0.0 1.0
vt 0.04065 0.733333
vt 0.04065 0.731034
vt 0.04065 0.733333
vt 0.932927 0.733333
vt 0.932927 0.731034
vt 0.04065 0.733333
vt 0.932927 0.731034
vt 0.04065 0.731034
vt 0.932927 0.733333
vt 0.973577 0.85977
vt 0.932927 0.731034
vt 0.0 1.0
vt 0.022358 0.85977
vt 0.04065 0.733333
vt 0.928862 0.264368
vt 0.932927 0.731034
vt 0.617886 0.305747
vt 0.932927 0.731034
vt 0.554878 0.731034
vt 0.617886 0.305747
vt 0.359756 0.305747
vt 0.04065 0.731034
vt 0.050813 0.264368
vt 0.359756 0.305747
vt 0.420732 0.731034
vt 0.04065 0.731034
vt 0.928862 0.264368
vt 0.932927 0.731034
vt 0.939024 0.0
vt 0.928862 0.264368
vt 0.939024 0.0
vt 0.04065 0.0
vt 0.04065 0.0
vt 0.617886 0.305747
vt 0.928862 0.264368
vt 0.04065 0.0
vt 0.04065 0.731034
vt 0.050813 0.264368
vt 0.050813 0.264368
vt 0.359756 0.305747
vt 0.04065 0.0
vt 0.04065 0.0
vt 0.359756 0.305747
vt 0.617886 0.305747
vt 0.04065 0.731034
vt 0.04065 0.0
vt 0.04065 0.331034
vt 0.04065 0.0
vt 0.0 0.0
vt 0.04065 0.331034
vt 0.04065 0.731034
vt 0.04065 0.331034
vt 0.04065 0.731034
vt 0.0 0.0
vt 0.0 1.0
vt 0.018293 0.397701
vt 0.018293 0.397701
vt 0.04065 0.331034
vt 0.0 0.0
vt 0.0 1.0
vt 0.04065 0.731034
vt 0.04065 0.731034
vt 0.0 1.0
vt 0.04065 0.731034
vt 0.018293 0.83908
vt 0.0 1.0
vt 0.018293 0.83908
vt 0.018293 0.397701
vt 1.0 1.0
vt 1.0 0.0
vt 0.97561 0.397701
vt 1.0 0.0
vt 0.939024 0.331034
vt 0.97561 0.397701
vt 0.939024 0.331034
vt 1.0 0.0
vt 0.939024 0.0
vt 0.932927 0.731034
vt 0.934959 0.731034
vt 0.939024 0.0
vt 0.932927 0.731034
vt 1.0 1.0
vt 0.934959 0.731034
vt 0.96748 0.83908
vt 0.934959 0.731034
vt 1.0 1.0
vt 1.0 1.0
vt 0.97561 0.397701
vt 0.96748 0.83908
vt 0.939024 0.0
vt 0.934959 0.731034
vt 0.939024 0.331034
vt 0.022358 0.85977
vt 0.973577 0.85977
vt 0.965447 0.878161
vt 0.022358 0.85977
vt 0.965447 0.878161
vt 0.03252 0.878161
vt 0.03252 0.878161
vt 0.056911 0.751724
vt 0.04065 0.733333
vt 0.04065 0.733333
vt 0.022358 0.85977
vt 0.03252 0.878161
vt 0.056911 0.751724
vt 0.918699 0.751724
vt 0.932927 0.733333
vt 0.056911 0.751724
vt 0.932927 0.733333
vt 0.04065 0.733333
vt 0.932927 0.733333
vt 0.918699 0.751724
vt 0.965447 0.878161
vt 0.965447 0.878161
vt 0.973577 0.85977
vt 0.932927 0.733333
vt 0.96748 0.83908
vt 0.987805 0.827586
vt 0.934959 0.731034
vt 0.934959 0.731034
vt 0.987805 0.827586
vt 0.961382 0.728736
vt 0.96748 0.83908
vt 0.97561 0.397701
vt 0.995935 0.404598
vt 0.995935 0.404598
vt 0.987805 0.827586
vt 0.96748 0.83908
vt 0.97561 0.397701
vt 0.939024 0.331034
vt 0.95935 0.333333
vt 0.95935 0.333333
vt 0.995935 0.404598
vt 0.97561 0.397701
vt 0.95935 0.333333
vt 0.939024 0.331034
vt 0.934959 0.731034
vt 0.934959 0.731034
vt 0.961382 0.728736
vt 0.95935 0.333333
vt 0.554878 0.731034
vt 0.932927 0.731034
vt 0.926829 0.731034
vt 0.926829 0.731034
vt 0.560976 0.731034
vt 0.554878 0.731034
vt 0.924797 0.264368
vt 0.926829 0.731034
vt 0.932927 0.731034
vt 0.932927 0.731034
vt 0.928862 0.264368
vt 0.924797 0.264368
vt 0.414634 0.731034
vt 0.052846 0.731034
vt 0.04065 0.731034
vt 0.050813 0.264368
vt 0.04065 0.731034
vt 0.052846 0.731034
vt 0.052846 0.731034
vt 0.058943 0.264368
vt 0.050813 0.264368
vt 0.058943 0.264368
vt 0.353659 0.305747
vt 0.359756 0.305747
vt 0.359756 0.305747
vt 0.050813 0.264368
vt 0.058943 0.264368
vt 0.420732 0.731034
vt 0.414634 0.731034
vt 0.04065 0.731034
vt 0.018293 0.83908
vt 0.04065 0.731034
vt 0.02439 0.728736
vt 0.02439 0.728736
vt 0.002033 0.827586
vt 0.018293 0.83908
vt 0.002033 0.404598
vt 0.018293 0.397701
vt 0.018293 0.83908
vt 0.018293 0.83908
vt 0.002033 0.827586
vt 0.002033 0.404598
vt 0.002033 0.404598
vt 0.02439 0.333333
vt 0.04065 0.331034
vt 0.04065 0.331034
vt 0.018293 0.397701
vt 0.002033 0.404598
vt 0.04065 0.731034
vt 0.04065 0.331034
vt 0.02439 0.333333
vt 0.02439 0.333333
vt 0.02439 0.728736
vt 0.04065 0.731034
vt 0.924797 0.264368
vt 0.928862 0.264368
vt 0.617886 0.305747
vt 0.617886 0.305747
vt 0.617886 0.305747
vt 0.924797 0.264368
vt 0.560976 0.731034
vt 0.617886 0.305747
vt 0.617886 0.305747
vt 0.617886 0.305747
vt 0.554878 0.731034
vt 0.560976 0.731034
vt 0.0 0.0
vt 0.04065 0.0
vt 0.939024 0.0
vt 0.0 0.0
vt 0.939024 0.0
vt 1.0 0.0
vt 0.548781 0.712644
vt 0.430894 0.712644
vt 0.426829 0.717241
vt 0.548781 0.712644
vt 0.426829 0.717241
vt 0.550813 0.717241
vt 0.369919 0.314943
vt 0.426829 0.717241
vt 0.430894 0.712644
vt 0.430894 0.712644
vt 0.378049 0.317241
vt 0.369919 0.314943
vt 0.599594 0.317241
vt 0.607724 0.314943
vt 0.369919 0.314943
vt 0.599594 0.317241
vt 0.369919 0.314943
vt 0.378049 0.317241
vt 0.607724 0.314943
vt 0.599594 0.317241
vt 0.548781 0.712644
vt 0.548781 0.712644
vt 0.550813 0.717241
vt 0.607724 0.314943
vt 0.426829 0.717241
vt 0.359756 0.305747
vt 0.420732 0.731034
vt 0.550813 0.717241
vt 0.426829 0.717241
vt 0.420732 0.731034
vt 0.550813 0.717241
vt 0.420732 0.731034
vt 0.554878 0.731034
vt 0.426829 0.717241
vt 0.369919 0.314943
vt 0.359756 0.305747
vt 0.617886 0.305747
vt 0.607724 0.314943
vt 0.550813 0.717241
vt 0.550813 0.717241
vt 0.554878 0.731034
vt 0.617886 0.305747
vt 0.369919 0.314943
vt 0.607724 0.314943
vt 0.617886 0.305747
vt 0.369919 0.314943
vt 0.617886 0.305747
vt 0.359756 0.305747
vt 0.04878 0.296552
vt 0.371951 0.37931
vt 0.371951 0.377012
vt 0.04878 0.296552
vt 0.371951 0.377012
vt 0.04878 0.294253
vt 0.04878 0.411494
vt 0.376016 0.404598
vt 0.376016 0.404598
vt 0.04878 0.411494
vt 0.376016 0.404598
vt 0.04878 0.409195
vt 0.04878 0.409195
vt 0.376016 0.404598
vt 0.371951 0.37931
vt 0.04878 0.409195
vt 0.371951 0.37931
vt 0.04878 0.296552
vt 0.416667 0.668966
vt 0.416667 0.666667
vt 0.229675 0.731034
vt 0.229675 0.731034
vt 0.416667 0.668966
vt 0.229675 0.731034
vt 0.414634 0.652874
vt 0.414634 0.650575
vt 0.052846 0.728736
vt 0.052846 0.731034
vt 0.414634 0.652874
vt 0.052846 0.728736
vt 0.416667 0.666667
vt 0.414634 0.652874
vt 0.052846 0.731034
vt 0.229675 0.731034
vt 0.416667 0.666667
vt 0.052846 0.731034
vt 0.747967 0.731034
vt 0.563008 0.666667
vt 0.560976 0.668966
vt 0.747967 0.731034
vt 0.560976 0.668966
vt 0.747967 0.733333
vt 0.926829 0.731034
vt 0.565041 0.650575
vt 0.565041 0.652874
vt 0.926829 0.731034
vt 0.565041 0.652874
vt 0.926829 0.731034
vt 0.926829 0.731034
vt 0.565041 0.652874
vt 0.563008 0.666667
vt 0.926829 0.731034
vt 0.563008 0.666667
vt 0.747967 0.731034
vt 0.605691 0.377012
vt 0.605691 0.37931
vt 0.928862 0.296552
vt 0.928862 0.294253
vt 0.605691 0.377012
vt 0.928862 0.296552
vt 0.601626 0.404598
vt 0.601626 0.404598
vt 0.928862 0.411494
vt 0.928862 0.409195
vt 0.601626 0.404598
vt 0.928862 0.411494
vt 0.605691 0.37931
vt 0.601626 0.404598
vt 0.928862 0.409195
vt 0.928862 0.296552
vt 0.605691 0.37931
vt 0.928862 0.409195

# 342 Vertex Normals
vn -0.994458 -0.005457 0.104995
vn -0.984156 -0.17706 0.009313
vn -0.956028 -0.096448 0.276961
vn 0.047884 0.979005 0.19813
vn 0.228435 0.954426 0.192063
vn -0.54324 0.838264 -0.04695
vn 0.047884 0.979005 0.19813
vn -0.54324 0.838264 -0.04695
vn 0.304061 0.813339 -0.49601
vn 0.941624 0.323379 0.093652
vn 0.645562 0.554888 0.524737
vn 0.736646 0.474962 0.481418
vn 0.508592 0.639132 0.576927
vn -0.513074 0.571621 0.640316
vn -0.517666 0.482767 0.706369
vn 0.508592 0.639132 0.576927
vn -0.517666 0.482767 0.706369
vn 0.458191 0.6445 0.612112
vn -0.513074 0.571621 0.640316
vn -0.799491 0.568391 0.194283
vn -0.620591 0.396432 0.676541
vn 0.998396 -0.051431 0.023661
vn 0.980446 0.170441 0.098369
vn 0.942375 0.304373 0.138879
vn 0.071016 -0.603634 -0.794092
vn -0.371933 0.2401 -0.89667
vn 0.045684 -0.37257 -0.926879
vn -0.371933 0.2401 -0.89667
vn 0.0 0.897858 -0.440284
vn 0.045684 -0.37257 -0.926879
vn -0.039926 -0.3224 -0.945761
vn 0.001413 0.719753 -0.694228
vn -0.061292 -0.517578 -0.853438
vn -0.039926 -0.3224 -0.945761
vn 0.0 0.720351 -0.69361
vn 0.001413 0.719753 -0.694228
vn -0.25667 -0.048415 0.965286
vn -0.650826 0.270249 0.709501
vn -0.381011 -0.496991 0.779635
vn -0.25667 -0.048415 0.965286
vn -0.381011 -0.496991 0.779635
vn 0.274794 -0.243995 0.930029
vn 0.274794 -0.243995 0.930029
vn 0.099318 -0.321581 0.941659
vn -0.25667 -0.048415 0.965286
vn 0.274794 -0.243995 0.930029
vn 0.832158 0.108411 0.543838
vn 0.290201 -0.05099 0.955606
vn 0.290201 -0.05099 0.955606
vn 0.01611 -0.286149 0.95805
vn 0.274794 -0.243995 0.930029
vn 0.274794 -0.243995 0.930029
vn 0.01611 -0.286149 0.95805
vn 0.099318 -0.321581 0.941659
vn -1.0 0.0 0.0
vn -1.0 0.0 0.0
vn -1.0 0.0 0.0
vn 0.282903 -0.056635 0.957475
vn 0.999151 -0.009149 0.040181
vn 0.866454 -0.461817 0.189693
vn 0.903471 -0.046638 0.426104
vn 0.866454 -0.461817 0.189693
vn 0.753068 0.197216 0.627689
vn 0.999151 -0.009149 0.040181
vn 0.998396 -0.051431 0.023661
vn 0.948196 -0.185605 -0.257829
vn 0.948196 -0.185605 -0.257829
vn 0.866454 -0.461817 0.189693
vn 0.827833 -0.559986 0.033291
vn 0.998396 -0.051431 0.023661
vn 0.903471 -0.046638 0.426104
vn 0.753068 0.197216 0.627689
vn -0.332473 0.927287 0.172049
vn -0.425789 0.878215 0.217812
vn -0.114489 0.959816 0.256213
vn 0.998396 -0.051431 0.023661
vn 0.66008 0.668227 -0.343173
vn 0.948196 -0.185605 -0.257829
vn -0.986917 0.137848 0.083626
vn -0.998015 -0.019137 0.059996
vn -0.86763 -0.426131 -0.256186
vn -0.941371 -0.332593 0.056591
vn -0.839487 -0.401321 0.366337
vn -0.86763 -0.426131 -0.256186
vn -0.839487 -0.401321 0.366337
vn -0.998015 -0.019137 0.059996
vn -0.654498 -0.038688 0.755073
vn -0.650826 0.270249 0.709501
vn -0.223385 0.51542 0.827309
vn -0.381011 -0.496991 0.779635
vn -0.517666 0.482767 0.706369
vn -0.48131 0.852812 0.202611
vn -0.186583 0.665281 0.722902
vn 0.312317 0.922153 0.228239
vn 0.193673 0.876741 0.440245
vn 0.228435 0.954426 0.192063
vn -0.986917 0.137848 0.083626
vn -0.86763 -0.426131 -0.256186
vn -0.681347 0.513553 -0.521565
vn -0.165037 -0.536492 0.827611
vn 0.060836 0.336655 0.939661
vn 0.212655 -0.041718 0.976236
vn 0.304061 0.813339 -0.49601
vn 0.0 0.977726 -0.209886
vn -0.279756 0.704176 -0.65259
vn 0.304061 0.813339 -0.49601
vn -0.279756 0.704176 -0.65259
vn 0.655264 0.729439 -0.196338
vn 0.655264 0.729439 -0.196338
vn 0.225144 0.606438 0.76259
vn 0.645562 0.554888 0.524737
vn 0.645562 0.554888 0.524737
vn 0.580229 0.685246 -0.440196
vn 0.655264 0.729439 -0.196338
vn 0.225144 0.606438 0.76259
vn -0.357404 0.648686 0.671914
vn -0.513074 0.571621 0.640316
vn 0.225144 0.606438 0.76259
vn -0.513074 0.571621 0.640316
vn 0.508592 0.639132 0.576927
vn -0.513074 0.571621 0.640316
vn -0.357404 0.648686 0.671914
vn -0.552136 0.697521 -0.456738
vn -0.796112 0.546213 0.260493
vn -0.799491 0.568391 0.194283
vn -0.513074 0.571621 0.640316
vn -0.480829 0.850525 -0.2131
vn -0.39445 0.910175 -0.126455
vn -0.186583 0.665281 0.722902
vn -0.059695 0.593783 0.802408
vn -0.39445 0.910175 -0.126455
vn -0.167179 0.582672 0.795327
vn -0.65284 0.225227 -0.723238
vn -0.966855 0.069725 -0.245622
vn -0.295165 0.27372 -0.915399
vn -0.295165 0.27372 -0.915399
vn -0.39445 0.910175 -0.126455
vn -0.681347 0.513553 -0.521565
vn -0.862045 -0.506496 -0.01845
vn -0.892176 -0.451668 0.004307
vn -0.191149 -0.974091 -0.12087
vn -0.191149 -0.974091 -0.12087
vn -0.306138 -0.945285 -0.112765
vn -0.862045 -0.506496 -0.01845
vn -0.174252 -0.0391 0.983924
vn -0.6396 -0.053308 0.766857
vn -0.223385 0.51542 0.827309
vn -0.223385 0.51542 0.827309
vn -0.167179 0.582672 0.795327
vn -0.174252 -0.0391 0.983924
vn 0.0 0.897858 -0.440284
vn -0.321045 0.945593 -0.052763
vn 0.094259 0.989152 0.112663
vn 0.094259 0.989152 0.112663
vn 0.0 1.0 0.0
vn 0.0 0.897858 -0.440284
vn -0.584343 -0.035477 0.810731
vn -0.346606 0.556475 0.755116
vn -0.650826 0.270249 0.709501
vn -0.650826 0.270249 0.709501
vn -0.25667 -0.048415 0.965286
vn -0.584343 -0.035477 0.810731
vn 0.0 1.0 0.0
vn 0.0 1.0 0.0
vn 0.308249 0.87137 -0.381702
vn 0.290201 -0.05099 0.955606
vn 0.832158 0.108411 0.543838
vn 0.346614 -0.044448 0.936954
vn 0.346614 -0.044448 0.936954
vn 0.077083 -0.59454 0.800362
vn 0.290201 -0.05099 0.955606
vn 0.009779 -0.903422 0.428642
vn -0.115553 -0.930846 0.34666
vn -0.0038 -0.459009 0.888423
vn -0.086762 -0.877779 -0.471145
vn -0.061292 -0.517578 -0.853438
vn -0.120336 -0.991809 -0.042826
vn 0.0 0.720351 -0.69361
vn 0.0 1.0 0.0
vn 0.308249 0.87137 -0.381702
vn 0.450239 0.8911 -0.056794
vn 0.569171 0.374774 0.731839
vn 0.339283 0.717302 0.608576
vn 0.339283 0.717302 0.608576
vn 0.61517 0.70987 -0.343003
vn 0.425447 0.840655 -0.335103
vn 0.353151 0.262049 -0.898117
vn 0.962757 0.072333 -0.260513
vn 0.722816 0.472775 -0.504004
vn 0.66008 0.668227 -0.343173
vn 0.61517 0.70987 -0.343003
vn 0.487139 -0.188725 -0.852689
vn 0.232689 -0.964593 -0.124159
vn 0.088199 -0.986174 -0.14029
vn 0.871898 -0.488082 -0.039615
vn 0.866454 -0.461817 0.189693
vn 0.962128 -0.272597 -0.00009
vn 0.457536 -0.7534 -0.472281
vn 0.753068 0.197216 0.627689
vn 0.934985 -0.255558 0.245955
vn 0.242317 -0.039226 0.969404
vn 0.242317 -0.039226 0.969404
vn 0.339283 0.717302 0.608576
vn 0.753068 0.197216 0.627689
vn 0.116841 -0.986525 -0.11453
vn 0.071016 -0.603634 -0.794092
vn 0.527491 -0.846486 0.072214
vn 0.331122 -0.507668 0.795381
vn 0.695859 -0.718179 0.0
vn 0.116841 -0.986525 -0.11453
vn 0.912133 -0.158486 0.378014
vn 0.695859 -0.718179 0.0
vn 0.429331 -0.638565 0.638677
vn 0.246811 -0.457854 0.854081
vn 0.333548 -0.135897 0.932887
vn 0.912133 -0.158486 0.378014
vn 0.442082 -0.896727 0.021098
vn 0.089756 -0.254352 0.962938
vn -0.165037 -0.536492 0.827611
vn 0.442082 -0.896727 0.021098
vn -0.165037 -0.536492 0.827611
vn -0.685606 -0.726089 0.052346
vn -0.436905 0.616254 0.655244
vn 0.528057 0.425066 0.73517
vn 0.226472 0.365122 0.902993
vn -0.436905 0.616254 0.655244
vn 0.226472 0.365122 0.902993
vn -0.228531 0.140944 0.96328
vn 0.294678 -0.425303 0.855735
vn 0.226472 0.365122 0.902993
vn 0.528057 0.425066 0.73517
vn 0.528057 0.425066 0.73517
vn 0.275087 -0.518673 0.80951
vn 0.294678 -0.425303 0.855735
vn -0.178481 -0.689661 0.701792
vn -0.244337 -0.361281 0.899875
vn 0.294678 -0.425303 0.855735
vn -0.178481 -0.689661 0.701792
vn 0.294678 -0.425303 0.855735
vn 0.275087 -0.518673 0.80951
vn -0.443212 -0.276492 0.85271
vn -0.178481 -0.689661 0.701792
vn -0.436905 0.616254 0.655244
vn -0.436905 0.616254 0.655244
vn -0.228531 0.140944 0.96328
vn -0.511585 -0.064283 0.856824
vn 0.226472 0.365122 0.902993
vn 0.01611 -0.286149 0.95805
vn -0.063836 -0.132926 0.989068
vn -0.228531 0.140944 0.96328
vn 0.226472 0.365122 0.902993
vn -0.063836 -0.132926 0.989068
vn -0.228531 0.140944 0.96328
vn -0.063836 -0.132926 0.989068
vn 0.333548 -0.135897 0.932887
vn 0.226472 0.365122 0.902993
vn 0.294678 -0.425303 0.855735
vn 0.01611 -0.286149 0.95805
vn 0.085111 -0.181759 0.979653
vn -0.443212 -0.276492 0.85271
vn -0.228531 0.140944 0.96328
vn -0.228531 0.140944 0.96328
vn 0.333548 -0.135897 0.932887
vn 0.237934 -0.333036 0.9124
vn 0.294678 -0.425303 0.855735
vn -0.443212 -0.276492 0.85271
vn 0.246811 -0.457854 0.854081
vn 0.294678 -0.425303 0.855735
vn 0.246811 -0.457854 0.854081
vn -0.0038 -0.459009 0.888423
vn 0.165108 0.668824 0.724855
vn 0.08984 0.330388 0.93956
vn 0.206407 0.875167 0.437583
vn 0.165108 0.668824 0.724855
vn 0.206407 0.875167 0.437583
vn 0.206407 0.875167 0.437583
vn 0.018132 -0.973088 0.229719
vn 0.01863 -0.999826 0.0
vn 0.018132 -0.973088 0.229719
vn 0.018132 -0.973088 0.229719
vn 0.020017 -0.794129 0.607419
vn 0.016579 -0.349368 0.936839
vn 0.016579 -0.349368 0.936839
vn 0.017091 -0.524679 0.851128
vn 0.08984 0.330388 0.93956
vn 0.016579 -0.349368 0.936839
vn 0.08984 0.330388 0.93956
vn 0.165108 0.668824 0.724855
vn 0.274587 -0.935631 0.221805
vn 0.08684 -0.346279 0.934104
vn 0.217992 -0.773064 0.595694
vn 0.281602 -0.959531 0.0
vn 0.274587 -0.935631 0.221805
vn 0.217992 -0.773064 0.595694
vn -0.141338 0.676147 0.723083
vn -0.175611 0.880527 0.440264
vn -0.175611 0.880527 0.440264
vn -0.078562 0.326005 0.942098
vn -0.141338 0.676147 0.723083
vn -0.175611 0.880527 0.440264
vn 0.08684 -0.346279 0.934104
vn -0.141338 0.676147 0.723083
vn -0.078562 0.326005 0.942098
vn 0.217992 -0.773064 0.595694
vn 0.08684 -0.346279 0.934104
vn -0.078562 0.326005 0.942098
vn -0.181959 -0.647641 0.7399
vn -0.079103 -0.318712 0.944545
vn -0.246944 -0.841438 0.480625
vn -0.181959 -0.647641 0.7399
vn -0.246944 -0.841438 0.480625
vn -0.253894 -0.865119 0.432559
vn -0.084463 0.954513 0.285955
vn 0.180399 0.879753 0.439876
vn 0.161305 0.780307 0.604236
vn 0.094259 0.989152 0.112663
vn 0.18889 0.955692 0.225772
vn 0.187619 0.982242 0.0
vn 0.013846 -0.0186 0.999731
vn 0.11591 0.516729 0.848266
vn -0.079103 -0.318712 0.944545
vn 0.013846 -0.0186 0.999731
vn -0.079103 -0.318712 0.944545
vn -0.181959 -0.647641 0.7399
vn -0.206407 0.875167 0.437583
vn -0.08984 0.330388 0.93956
vn -0.165108 0.668824 0.724855
vn -0.206407 0.875167 0.437583
vn -0.206407 0.875167 0.437583
vn -0.165108 0.668824 0.724855
vn -0.018132 -0.973088 0.229719
vn -0.01863 -0.999826 0.0
vn -0.018132 -0.973088 0.229719
vn -0.016579 -0.349368 0.936839
vn -0.020017 -0.794129 0.607419
vn -0.018132 -0.973088 0.229719
vn -0.08984 0.330388 0.93956
vn -0.017091 -0.524679 0.851128
vn -0.016579 -0.349368 0.936839
vn -0.165108 0.668824 0.724855
vn -0.08984 0.330388 0.93956
vn -0.016579 -0.349368 0.936839

# main, 114 grouped triangles

o main
g main

f 1/1/1 2/2/2 3/3/3
f 4/4/4 2/5/5 1/6/6
f 4/7/7 1/8/8 5/9/9
f 4/10/10 6/11/11 7/12/12
f 6/13/13 8/14/14 3/15/15
f 6/16/16 3/17/17 7/18/18
f 8/19/19 1/20/20 3/21/21
f 4/22/22 5/23/23 6/24/24
f 9/25/25 3/26/26 10/27/27
f 3/28/28 11/29/29 10/30/30
f 12/31/31 7/32/32 13/33/33
f 12/34/34 14/35/35 7/36/36
f 9/37/37 3/38/38 15/39/39
f 9/40/40 15/41/41 16/42/42
f 16/43/43 10/44/44 9/45/45
f 16/46/46 7/47/47 13/48/48
f 13/49/49 12/50/50 16/51/51
f 16/52/52 12/53/53 10/54/54
f 7/55/55 16/56/56 17/57/57
f 16/58/58 18/59/59 17/60/60
f 7/61/61 17/62/62 19/63/63
f 18/64/64 4/65/65 20/66/66
f 20/67/67 17/68/68 18/69/69
f 4/70/70 7/71/71 19/72/72
f 4/73/73 19/74/74 21/75/75
f 4/76/76 21/77/77 20/78/78
f 2/79/79 22/80/80 23/81/81
f 22/82/82 24/83/83 23/84/84
f 24/85/85 22/86/86 15/87/87
f 3/88/88 25/89/89 15/90/90
f 3/91/91 2/92/92 25/93/93
f 26/94/94 25/95/95 2/96/96
f 2/97/97 23/98/98 26/99/99
f 15/100/100 25/101/101 24/102/102
f 5/103/103 1/104/104 27/105/105
f 5/106/106 27/107/107 28/108/108
f 28/109/109 29/110/110 6/111/111
f 6/112/112 5/113/113 28/114/114
f 29/115/115 30/116/116 8/117/117
f 29/118/118 8/119/119 6/120/120
f 8/121/121 30/122/122 27/123/123
f 27/124/124 1/125/125 8/126/126
f 26/127/127 31/128/128 25/129/129
f 25/130/130 31/131/131 32/132/132
f 26/133/133 23/134/134 33/135/135
f 33/136/136 31/137/137 26/138/138
f 23/139/139 24/140/140 34/141/141
f 34/142/142 33/143/143 23/144/144
f 34/145/145 24/146/146 25/147/147
f 25/148/148 32/149/149 34/150/150
f 11/151/151 3/152/152 35/153/153
f 35/154/154 36/155/155 11/156/156
f 37/157/157 35/158/158 3/159/159
f 3/160/160 9/161/161 37/162/162
f 38/163/163 39/164/164 7/165/165
f 13/166/166 7/167/167 39/168/168
f 39/169/169 40/170/170 13/171/171
f 40/172/172 41/173/173 12/174/174
f 12/175/175 13/176/176 40/177/177
f 14/178/178 38/179/179 7/180/180
f 21/181/181 19/182/182 42/183/183
f 42/184/184 43/185/185 21/186/186
f 44/187/187 20/188/188 21/189/189
f 21/190/190 43/191/191 44/192/192
f 44/193/193 45/194/194 17/195/195
f 17/196/196 20/197/197 44/198/198
f 19/199/199 17/200/200 45/201/201
f 45/202/202 42/203/203 19/204/204
f 37/205/205 9/206/206 10/207/207
f 10/208/208 46/209/209 37/210/210
f 36/211/211 46/212/212 10/213/213
f 10/214/214 11/215/215 36/216/216
f 18/217/217 16/218/218 15/219/219
f 18/220/220 15/221/221 22/222/222
f 47/223/223 48/224/224 49/225/225
f 47/226/226 49/227/227 50/228/228
f 51/229/229 49/230/230 48/231/231
f 48/232/232 52/233/233 51/234/234
f 53/235/235 54/236/236 51/237/237
f 53/238/238 51/239/239 52/240/240
f 54/241/241 53/242/242 47/243/243
f 47/244/244 50/245/245 54/246/246
f 49/247/247 12/248/248 14/249/249
f 50/250/250 49/251/251 14/252/252
f 50/253/253 14/254/254 11/255/255
f 49/256/256 51/257/257 12/258/258
f 10/259/259 54/260/260 50/261/261
f 50/262/262 11/263/263 10/264/264
f 51/265/265 54/266/266 10/267/267
f 51/268/268 10/269/269 12/270/270
f 55/271/271 56/272/272 57/273/273
f 55/274/274 57/275/275 58/276/276
f 59/277/277 60/278/278 61/279/279
f 59/280/280 61/281/281 62/282/282
f 62/283/283 61/284/284 56/285/285
f 62/286/286 56/287/287 55/288/288
f 63/289/289 64/290/290 65/291/291
f 66/292/292 63/293/293 65/294/294
f 67/295/295 68/296/296 69/297/297
f 70/298/298 67/299/299 69/300/300
f 64/301/301 67/302/302 70/303/303
f 65/304/304 64/305/305 70/306/306
f 71/307/307 72/308/308 73/309/309
f 71/310/310 73/311/311 74/312/312
f 35/313/313 75/314/314 76/315/315
f 35/316/316 76/317/317 77/318/318
f 77/319/319 76/320/320 72/321/321
f 77/322/322 72/323/323 71/324/324
f 78/325/325 79/326/326 80/327/327
f 81/328/328 78/329/329 80/330/330
f 82/331/331 83/332/332 84/333/333
f 85/334/334 82/335/335 84/336/336
f 79/337/337 82/338/338 85/339/339
f 80/340/340 79/341/341 85/342/342
