# 3ds Max Wavefront OBJ Exporter v0.97b - (c)2007 guruware
# File Created: 24.02.2020 20:00:24

mtllib mr_head.mtl

#
# object main
#

v  -19200.0000 9100.0000 20700.0000
v  -19200.0000 10600.0000 2700.0000
v  -14700.0000 -2600.0000 2700.0000
v  -5900.0000 4000.0000 45600.0000
v  15600.0000 -2600.0000 2700.0000
v  20200.0000 9100.0000 20700.0000
v  6700.0000 4000.0000 45600.0000
v  20200.0000 10600.0000 2700.0000
v  -20400.0000 11000.0000 2700.0000
v  -20400.0000 9800.0000 20700.0000
v  -6300.0000 4800.0000 47100.0000
v  21400.0000 11000.0000 2700.0000
v  21400.0000 9800.0000 20700.0000
v  7100.0000 4800.0000 47100.0000
v  -11500.0000 29100.0000 2700.0000
v  -11500.0000 24900.0000 36500.0000
v  12100.0000 24900.0000 36500.0000
v  12100.0000 29100.0000 2700.0000
v  12700.0000 12300.0000 50000.0000
v  11800.0000 12300.0000 50000.0000
v  6200.0000 4800.0000 47100.0000
v  11800.0000 12300.0000 50400.0000
v  6200.0000 4600.0000 47400.0000
v  6200.0000 22900.0000 51900.0000
v  6200.0000 22800.0000 52300.0000
v  6600.0000 23400.0000 52000.0000
v  -11000.0000 12300.0000 50000.0000
v  -11900.0000 12300.0000 50000.0000
v  -6200.0000 4800.0000 47100.0000
v  -5400.0000 4800.0000 47100.0000
v  -5400.0000 4600.0000 47400.0000
v  -11000.0000 12300.0000 50400.0000
v  -5400.0000 22800.0000 52300.0000
v  -5400.0000 22900.0000 51900.0000
v  -5800.0000 23400.0000 52000.0000
v  -22000.0000 8700.0000 21100.0000
v  -11400.0000 11900.0000 49800.0000
v  -11400.0000 12800.0000 50100.0000
v  -20300.0000 11300.0000 20800.0000
v  12200.0000 12800.0000 50100.0000
v  21300.0000 11300.0000 20800.0000
v  12200.0000 11900.0000 49800.0000
v  23000.0000 8700.0000 21100.0000
v  -12400.0000 23300.0000 34900.0000
v  -6200.0000 22800.0000 51900.0000
v  -5200.0000 23400.0000 52000.0000
v  -9400.0000 24900.0000 36500.0000
v  10100.0000 24900.0000 36500.0000
v  6000.0000 23400.0000 52000.0000
v  7000.0000 22800.0000 51900.0000
v  13100.0000 23300.0000 34900.0000
v  5000.0000 2000.0000 32600.0000
v  -4100.0000 2000.0000 32600.0000
v  -7300.0000 3100.0000 39800.0000
v  8100.0000 3100.0000 39800.0000
v  3800.0000 4000.0000 45600.0000
v  -2900.0000 4000.0000 45600.0000
v  -1500.0000 36000.0000 10900.0000
v  -900.0000 36300.0000 60000.0000
v  2100.0000 36300.0000 60000.0000
v  2700.0000 36000.0000 10900.0000
v  -21527.0117 38802.5977 5155.7158
v  22378.1816 38802.5977 5155.7158
v  -21527.0117 38802.5977 988.4432
v  22378.1816 38802.5977 988.4432
v  22378.1816 -5102.5962 5155.7148
v  -21527.0117 -5102.5962 5155.7148
v  22378.1816 -5102.5957 988.4420
v  -21527.0117 -5102.5957 988.4420
# 69 vertices

vn -0.6393 -0.7658 0.0695
vn -0.7040 -0.7078 -0.0590
vn -0.3831 -0.9104 0.1561
vn -0.3736 -0.8803 0.2924
vn 0.4805 -0.8636 0.1528
vn 0.6367 -0.7679 0.0707
vn 0.2957 -0.8944 0.3357
vn 0.7015 -0.7102 -0.0592
vn -0.4113 -0.9089 -0.0685
vn -0.9293 -0.3413 0.1409
vn -0.7811 -0.6225 -0.0487
vn -0.3100 -0.8903 0.3337
vn 0.4113 -0.9089 -0.0685
vn 0.7832 -0.6199 -0.0486
vn 0.9748 -0.1938 0.1103
vn 0.4092 -0.8690 0.2782
vn -0.5227 0.8469 0.0978
vn -0.4405 0.8801 0.1775
vn 0.5160 0.8298 0.2126
vn 0.6733 0.7349 0.0813
vn 0.9926 0.0209 0.1192
vn 0.9599 -0.2796 -0.0186
vn -0.9574 -0.2881 -0.0192
vn -0.9868 -0.0108 0.1614
vn 0.3641 -0.4058 0.8383
vn 0.2395 -0.4024 0.8836
vn 0.3309 -0.5450 0.7704
vn 0.0000 -0.3606 0.9327
vn 0.9651 -0.2319 -0.1218
vn 0.8216 -0.4743 -0.3162
vn 0.8234 -0.5442 -0.1604
vn 0.6436 -0.1011 0.7586
vn 0.5650 -0.6245 0.5393
vn 0.9186 0.0512 0.3918
vn 0.4399 0.6064 0.6624
vn 0.5181 0.8373 0.1749
vn 0.9914 0.1237 0.0432
vn 0.4707 -0.2454 0.8475
vn 0.5071 -0.2258 0.8318
vn 0.1827 -0.0622 0.9812
vn -0.0067 0.2583 0.9660
vn -0.1846 -0.3948 0.9000
vn -0.2128 -0.5179 0.8286
vn -0.5139 -0.6150 0.5981
vn -0.8234 -0.5442 -0.1604
vn -0.8216 -0.4743 -0.3162
vn -0.9651 -0.2319 -0.1218
vn -0.7209 -0.6367 0.2738
vn -0.5367 -0.1601 0.8285
vn -0.6772 0.7232 0.1358
vn -0.2636 0.5935 0.7605
vn -0.9186 0.0512 0.3918
vn -0.9914 0.1237 0.0432
vn -0.4280 -0.2238 0.8756
vn -0.4684 -0.2431 0.8494
vn -0.3752 -0.2765 0.8847
vn 0.0042 0.3696 0.9292
vn -0.2140 0.4450 0.8696
vn 0.3245 0.3866 0.8633
vn -0.8437 0.5199 0.1334
vn -0.5446 0.8316 0.1084
vn -0.8913 0.3888 0.2332
vn -0.9565 0.0446 0.2883
vn -0.4986 0.3540 0.7912
vn -0.5509 -0.8028 0.2283
vn 0.7131 0.6757 0.1869
vn 0.7319 0.4532 0.5089
vn 0.8894 0.3835 0.2488
vn 0.5960 -0.0320 0.8023
vn 0.5257 -0.8007 0.2871
vn 0.5484 0.8311 0.0919
vn 0.8684 0.4805 0.1227
vn 0.8026 0.5611 0.2023
vn -0.4063 0.2580 0.8766
vn -0.8806 0.3321 0.3379
vn -0.8138 0.4907 0.3112
vn 0.0000 0.9954 0.0963
vn -0.6905 0.6567 0.3033
vn 0.3046 0.9316 0.1982
vn 0.8686 0.3631 0.3372
vn 0.9124 0.2359 0.3343
vn 0.1640 0.3554 0.9202
vn -0.0004 -0.9884 0.1519
vn 0.0007 -0.9884 0.1518
vn 0.0007 -0.9883 0.1525
vn -0.0007 -0.9883 0.1525
vn 0.0000 -0.9882 0.1533
vn 0.0000 1.0000 -0.0061
vn 0.0000 1.0000 0.0000
vn -0.0000 1.0000 0.0000
vn 0.0000 -1.0000 0.0000
vn -0.0000 -1.0000 0.0000
vn -1.0000 0.0000 0.0000
vn 1.0000 0.0000 -0.0000
vn -0.0000 0.0000 -1.0000
vn 0.0000 0.0000 -1.0000
vn -0.0000 -0.0000 1.0000
vn 0.0000 -0.0000 1.0000
# 98 vertex normals

vt 0.0622 0.3235 0.0000
vt 0.0622 0.3576 0.0000
vt 0.1622 0.0570 0.0000
vt 0.3578 0.2073 0.0000
vt 0.8356 0.0570 0.0000
vt 0.9378 0.3235 0.0000
vt 0.6378 0.2073 0.0000
vt 0.9378 0.3576 0.0000
vt 0.0356 0.3668 0.0000
vt 0.0356 0.3394 0.0000
vt 0.3489 0.2255 0.0000
vt 0.9644 0.3668 0.0000
vt 0.9644 0.3394 0.0000
vt 0.6467 0.2255 0.0000
vt 0.2333 0.7790 0.0000
vt 0.2333 0.6834 0.0000
vt 0.7578 0.6834 0.0000
vt 0.7578 0.7790 0.0000
vt 0.7711 0.3964 0.0000
vt 0.7511 0.3964 0.0000
vt 0.6267 0.2255 0.0000
vt 0.6267 0.2210 0.0000
vt 0.6267 0.6378 0.0000
vt 0.6267 0.6355 0.0000
vt 0.6356 0.6492 0.0000
vt 0.2444 0.3964 0.0000
vt 0.2244 0.3964 0.0000
vt 0.3511 0.2255 0.0000
vt 0.3689 0.2255 0.0000
vt 0.3689 0.2210 0.0000
vt 0.3689 0.6355 0.0000
vt 0.3689 0.6378 0.0000
vt 0.3600 0.6492 0.0000
vt 0.0000 0.3144 0.0000
vt 0.2356 0.3873 0.0000
vt 0.2356 0.4078 0.0000
vt 0.0378 0.3736 0.0000
vt 0.7600 0.4078 0.0000
vt 0.9622 0.3736 0.0000
vt 0.7600 0.3873 0.0000
vt 1.0000 0.3144 0.0000
vt 0.2133 0.6469 0.0000
vt 0.3511 0.6355 0.0000
vt 0.3733 0.6492 0.0000
vt 0.2800 0.6834 0.0000
vt 0.7133 0.6834 0.0000
vt 0.6222 0.6492 0.0000
vt 0.6444 0.6355 0.0000
vt 0.7800 0.6469 0.0000
vt 0.6000 0.1618 0.0000
vt 0.3978 0.1618 0.0000
vt 0.3267 0.1868 0.0000
vt 0.6689 0.1868 0.0000
vt 0.5733 0.2073 0.0000
vt 0.4244 0.2073 0.0000
vt 0.4556 0.9362 0.0000
vt 0.4689 0.9430 0.0000
vt 0.5356 0.9430 0.0000
vt 0.5489 0.9362 0.0000
vt 0.0105 1.0000 0.0000
vt 0.9862 1.0000 0.0000
vt 0.9862 0.0000 0.0000
vt 0.0105 0.0000 0.0000
# 63 texture coords

o main
g main
usemtl a
s 1
f 1/1/1 2/2/2 3/3/3 
f 3/3/3 4/4/4 1/1/1 
f 5/5/5 6/6/6 7/7/7 
f 5/5/5 8/8/8 6/6/6 
f 9/9/9 2/2/2 1/1/1 
f 1/1/1 10/10/10 9/9/11 
f 1/1/1 4/4/4 11/11/12 
f 11/11/12 10/10/10 1/1/1 
f 6/6/6 8/8/8 12/12/13 
f 12/12/14 13/13/15 6/6/6 
f 14/14/16 7/7/7 6/6/6 
f 6/6/6 13/13/15 14/14/16 
f 11/11/12 4/4/4 7/7/7 
f 11/11/12 7/7/7 14/14/16 
f 15/15/17 16/16/18 17/17/19 
f 15/15/17 17/17/19 18/18/20 
f 13/13/21 12/12/22 18/18/20 
f 18/18/20 17/17/19 13/13/21 
f 15/15/17 9/9/23 10/10/24 
f 10/10/24 16/16/18 15/15/17 
f 19/19/25 20/20/26 21/21/27 
f 19/19/25 21/21/27 14/14/28 
f 22/20/29 23/22/30 21/21/31 
f 20/20/32 22/20/29 21/21/33 
f 20/20/34 24/23/35 25/24/36 
f 22/20/29 20/20/37 25/24/36 
f 20/20/38 19/19/39 26/25/40 
f 24/23/41 20/20/26 26/25/40 
f 27/26/42 28/27/43 29/28/28 
f 27/26/42 29/28/28 30/29/44 
f 30/29/45 31/30/46 32/26/47 
f 30/29/48 32/26/47 27/26/49 
f 33/31/50 34/32/51 27/26/52 
f 33/31/50 27/26/53 32/26/47 
f 35/33/54 28/27/55 27/26/56 
f 35/33/54 27/26/42 34/32/57 
f 34/32/58 24/23/59 26/25/40 
f 34/32/58 26/25/40 35/33/54 
f 25/24/36 24/23/59 34/32/58 
f 25/24/36 34/32/58 33/31/50 
f 10/10/60 36/34/61 37/35/61 
f 38/36/62 39/37/63 10/10/24 
f 10/10/60 28/27/64 38/36/62 
f 10/10/10 37/35/65 28/27/43 
f 40/38/66 19/19/67 41/39/68 
f 19/19/69 13/13/21 41/39/68 
f 19/19/25 42/40/70 43/41/70 
f 43/41/71 13/13/72 19/19/73 
f 35/33/74 16/16/18 44/42/75 
f 44/42/75 45/43/76 35/33/74 
f 46/44/77 47/45/77 16/16/18 
f 16/16/18 35/33/78 46/44/77 
f 26/25/79 17/17/19 48/46/77 
f 48/46/77 49/47/77 26/25/79 
f 50/48/80 51/49/81 17/17/19 
f 17/17/19 26/25/82 50/48/80 
f 3/3/3 5/5/5 52/50/83 
f 3/3/3 52/50/83 53/51/84 
f 54/52/85 3/3/3 53/51/84 
f 52/50/83 5/5/5 55/53/86 
f 55/53/86 7/7/7 56/54/87 
f 57/55/87 4/4/4 54/52/85 
f 58/56/88 59/57/88 60/58/88 
f 58/56/88 60/58/88 61/59/88 
f 62/60/89 63/61/89 64/60/89 
f 63/61/89 65/61/90 64/60/89 
f 66/62/91 67/63/91 68/62/91 
f 67/63/91 69/63/92 68/62/91 
f 64/60/93 67/63/93 62/60/93 
f 64/60/93 69/63/93 67/63/93 
f 68/62/94 63/61/94 66/62/94 
f 68/62/94 65/61/94 63/61/94 
f 64/60/95 68/62/95 69/63/96 
f 64/60/95 65/61/95 68/62/95 
f 63/61/97 67/63/97 66/62/98 
f 63/61/97 62/60/97 67/63/97 
# 0 polygons - 76 triangles

