# Wavefront OBJ file
# Exported by Misfit Model 3D 1.3.8
# Mon Jan 20 14:01:17 2020

mtllib mr5_head.mtl

# 70 Vertices
v -192.0 91.0 207.0
v -192.0 106.0 27.0
v -147.0 -26.0 27.0
v -59.0 40.0 456.0
v 156.0 -26.0 27.0
v 202.0 91.0 207.0
v 67.0 40.0 456.0
v 202.0 106.0 27.0
v -204.0 110.0 27.0
v -204.0 98.0 207.0
v -63.0 48.0 471.0
v 214.0 110.0 27.0
v 214.0 98.0 207.0
v 71.0 48.0 471.0
v -115.0 291.0 27.0
v -115.0 249.0 365.0
v 121.0 249.0 365.0
v 121.0 291.0 27.0
v 127.0 123.0 500.0
v 118.0 123.0 500.0
v 62.0 48.0 471.0
v 71.0 48.0 471.0
v 118.0 123.0 504.0
v 62.0 46.0 474.0
v 62.0 229.0 519.0
v 62.0 228.0 523.0
v 66.0 234.0 520.0
v -110.0 123.0 500.0
v -119.0 123.0 500.0
v -62.0 48.0 471.0
v -54.0 48.0 471.0
v -54.0 46.0 474.0
v -110.0 123.0 504.0
v -54.0 228.0 523.0
v -54.0 229.0 519.0
v -58.0 234.0 520.0
v -220.0 87.0 211.0
v -114.0 119.0 498.0
v -114.0 128.0 501.0
v -203.0 113.0 208.0
v 122.0 128.0 501.0
v 213.0 113.0 208.0
v 122.0 119.0 498.0
v 230.0 87.0 211.0
v -124.0 233.0 349.0
v -62.0 228.0 519.0
v -52.0 234.0 520.0
v -94.0 249.0 365.0
v 101.0 249.0 365.0
v 60.0 234.0 520.0
v 70.0 228.0 519.0
v 131.0 233.0 349.0
v 50.0 20.0 326.0
v -41.0 20.0 326.0
v -73.0 31.0 398.0
v 81.0 31.0 398.0
v 38.0 40.0 456.0
v -29.0 40.0 456.0
v -15.0 360.0 109.0
v -9.0 363.0 600.0
v 21.0 363.0 600.0
v 27.0 360.0 109.0
v -215.270123 388.025974 51.557158
v 223.781811 388.025974 51.557158
v -215.270123 388.025975 9.884432
v 223.781811 388.025975 9.884432
v 223.781811 -51.02596 51.557146
v -215.270123 -51.02596 51.557146
v 223.781811 -51.025959 9.88442
v -215.270123 -51.025959 9.88442

# 231 Texture Coordinates
vt 0.062222 0.323483
vt 0.062222 0.357648
vt 0.162222 0.057
vt 0.162222 0.057
vt 0.357778 0.207324
vt 0.062222 0.323483
vt 0.835556 0.057
vt 0.937778 0.323483
vt 0.637778 0.207324
vt 0.835556 0.057
vt 0.937778 0.357648
vt 0.937778 0.323483
vt 0.035556 0.366758
vt 0.062222 0.357648
vt 0.062222 0.323483
vt 0.062222 0.323483
vt 0.035556 0.339427
vt 0.035556 0.366758
vt 0.062222 0.323483
vt 0.357778 0.207324
vt 0.348889 0.225545
vt 0.348889 0.225545
vt 0.035556 0.339427
vt 0.062222 0.323483
vt 0.937778 0.323483
vt 0.937778 0.357648
vt 0.964444 0.366758
vt 0.964444 0.366758
vt 0.964444 0.339427
vt 0.937778 0.323483
vt 0.646667 0.225545
vt 0.637778 0.207324
vt 0.937778 0.323483
vt 0.937778 0.323483
vt 0.964444 0.339427
vt 0.646667 0.225545
vt 0.348889 0.225545
vt 0.357778 0.207324
vt 0.637778 0.207324
vt 0.348889 0.225545
vt 0.637778 0.207324
vt 0.646667 0.225545
vt 0.233333 0.77901
vt 0.233333 0.68335
vt 0.757778 0.68335
vt 0.233333 0.77901
vt 0.757778 0.68335
vt 0.757778 0.77901
vt 0.964444 0.339427
vt 0.964444 0.366758
vt 0.757778 0.77901
vt 0.757778 0.77901
vt 0.757778 0.68335
vt 0.964444 0.339427
vt 0.233333 0.77901
vt 0.035556 0.366758
vt 0.035556 0.339427
vt 0.035556 0.339427
vt 0.233333 0.68335
vt 0.233333 0.77901
vt 0.771111 0.396368
vt 0.751111 0.396368
vt 0.626667 0.225545
vt 0.771111 0.396368
vt 0.626667 0.225545
vt 0.646667 0.225545
vt 0.751111 0.396368
vt 0.626667 0.22099
vt 0.626667 0.225545
vt 0.751111 0.396368
vt 0.751111 0.396368
vt 0.626667 0.225545
vt 0.751111 0.396368
vt 0.626667 0.637797
vt 0.626667 0.635519
vt 0.751111 0.396368
vt 0.751111 0.396368
vt 0.626667 0.635519
vt 0.751111 0.396368
vt 0.771111 0.396368
vt 0.635556 0.649185
vt 0.626667 0.637797
vt 0.751111 0.396368
vt 0.635556 0.649185
vt 0.244444 0.396368
vt 0.224444 0.396368
vt 0.351111 0.225545
vt 0.244444 0.396368
vt 0.351111 0.225545
vt 0.368889 0.225545
vt 0.368889 0.225545
vt 0.368889 0.22099
vt 0.244444 0.396368
vt 0.368889 0.225545
vt 0.244444 0.396368
vt 0.244444 0.396368
vt 0.368889 0.635519
vt 0.368889 0.637797
vt 0.244444 0.396368
vt 0.368889 0.635519
vt 0.244444 0.396368
vt 0.244444 0.396368
vt 0.36 0.649185
vt 0.224444 0.396368
vt 0.244444 0.396368
vt 0.36 0.649185
vt 0.244444 0.396368
vt 0.368889 0.637797
vt 0.368889 0.637797
vt 0.626667 0.637797
vt 0.635556 0.649185
vt 0.368889 0.637797
vt 0.635556 0.649185
vt 0.36 0.649185
vt 0.626667 0.635519
vt 0.626667 0.637797
vt 0.368889 0.637797
vt 0.626667 0.635519
vt 0.368889 0.637797
vt 0.368889 0.635519
vt 0.035556 0.339427
vt 0.0 0.314373
vt 0.235556 0.387257
vt 0.235556 0.407756
vt 0.037778 0.373591
vt 0.035556 0.339427
vt 0.035556 0.339427
vt 0.224444 0.396368
vt 0.235556 0.407756
vt 0.035556 0.339427
vt 0.235556 0.387257
vt 0.224444 0.396368
vt 0.76 0.407756
vt 0.771111 0.396368
vt 0.962222 0.373591
vt 0.771111 0.396368
vt 0.964444 0.339427
vt 0.962222 0.373591
vt 0.771111 0.396368
vt 0.76 0.387257
vt 1.0 0.314373
vt 1.0 0.314373
vt 0.964444 0.339427
vt 0.771111 0.396368
vt 0.36 0.649185
vt 0.233333 0.68335
vt 0.213333 0.646907
vt 0.213333 0.646907
vt 0.351111 0.635519
vt 0.36 0.649185
vt 0.373333 0.649185
vt 0.28 0.68335
vt 0.233333 0.68335
vt 0.233333 0.68335
vt 0.36 0.649185
vt 0.373333 0.649185
vt 0.36 0.649185
vt 0.233333 0.68335
vt 0.28 0.68335
vt 0.635556 0.649185
vt 0.757778 0.68335
vt 0.713333 0.68335
vt 0.713333 0.68335
vt 0.622222 0.649185
vt 0.635556 0.649185
vt 0.644444 0.635519
vt 0.78 0.646907
vt 0.757778 0.68335
vt 0.757778 0.68335
vt 0.635556 0.649185
vt 0.644444 0.635519
vt 0.162222 0.057
vt 0.835556 0.057
vt 0.6 0.161771
vt 0.162222 0.057
vt 0.6 0.161771
vt 0.397778 0.161771
vt 0.326667 0.186825
vt 0.162222 0.057
vt 0.397778 0.161771
vt 0.6 0.161771
vt 0.835556 0.057
vt 0.668889 0.186825
vt 0.668889 0.186825
vt 0.637778 0.207324
vt 0.573333 0.207324
vt 0.424444 0.207324
vt 0.357778 0.207324
vt 0.326667 0.186825
vt 0.455556 0.936167
vt 0.468889 0.943
vt 0.535556 0.943
vt 0.455556 0.936167
vt 0.535556 0.943
vt 0.548889 0.936167
vt 0.010511 1.0
vt 0.986182 1.0
vt 0.010511 1.0
vt 0.986182 1.0
vt 0.986182 1.0
vt 0.010511 1.0
vt 0.986182 0.0
vt 0.010511 0.0
vt 0.986182 0.0
vt 0.010511 0.0
vt 0.010511 0.0
vt 0.986182 0.0
vt 0.010511 1.0
vt 0.010511 0.0
vt 0.010511 1.0
vt 0.010511 1.0
vt 0.010511 0.0
vt 0.010511 0.0
vt 0.986182 0.0
vt 0.986182 1.0
vt 0.986182 0.0
vt 0.986182 0.0
vt 0.986182 1.0
vt 0.986182 1.0
vt 0.010511 1.0
vt 0.986182 0.0
vt 0.010511 0.0
vt 0.010511 1.0
vt 0.986182 1.0
vt 0.986182 0.0
vt 0.986182 1.0
vt 0.010511 0.0
vt 0.986182 0.0
vt 0.986182 1.0
vt 0.010511 1.0
vt 0.010511 0.0

# 231 Vertex Normals
vn -0.639258 -0.765848 0.069466
vn -0.703954 -0.707792 -0.058983
vn -0.383061 -0.910435 0.156115
vn -0.383061 -0.910435 0.156115
vn -0.373594 -0.880286 0.292444
vn -0.639258 -0.765848 0.069466
vn 0.480528 -0.86357 0.152772
vn 0.636657 -0.767902 0.070672
vn 0.295662 -0.894359 0.335716
vn 0.480528 -0.86357 0.152772
vn 0.701539 -0.71017 -0.059181
vn 0.636657 -0.767902 0.070672
vn -0.411341 -0.908903 -0.068517
vn -0.703954 -0.707792 -0.058983
vn -0.639258 -0.765848 0.069466
vn -0.639258 -0.765848 0.069466
vn -0.929344 -0.341289 0.14086
vn -0.781097 -0.622509 -0.048678
vn -0.639258 -0.765848 0.069466
vn -0.373594 -0.880286 0.292444
vn -0.310021 -0.890258 0.333659
vn -0.310021 -0.890258 0.333659
vn -0.929344 -0.341289 0.14086
vn -0.639258 -0.765848 0.069466
vn 0.636657 -0.767902 0.070672
vn 0.701539 -0.71017 -0.059181
vn 0.411341 -0.908903 -0.068517
vn 0.7832 -0.619871 -0.048555
vn 0.974816 -0.193829 0.110295
vn 0.636657 -0.767902 0.070672
vn 0.409227 -0.868976 0.278235
vn 0.295662 -0.894359 0.335716
vn 0.636657 -0.767902 0.070672
vn 0.636657 -0.767902 0.070672
vn 0.974816 -0.193829 0.110295
vn 0.409227 -0.868976 0.278235
vn -0.310021 -0.890258 0.333659
vn -0.373594 -0.880286 0.292444
vn 0.295662 -0.894359 0.335716
vn -0.310021 -0.890258 0.333659
vn 0.295662 -0.894359 0.335716
vn 0.409227 -0.868976 0.278235
vn -0.522703 0.846889 0.097784
vn -0.440453 0.880055 0.177494
vn 0.516031 0.829757 0.212639
vn -0.522703 0.846889 0.097784
vn 0.516031 0.829757 0.212639
vn 0.67333 0.734861 0.081281
vn 0.992646 0.020852 0.119247
vn 0.959922 -0.279648 -0.018643
vn 0.67333 0.734861 0.081281
vn 0.67333 0.734861 0.081281
vn 0.516031 0.829757 0.212639
vn 0.992646 0.020852 0.119247
vn -0.522703 0.846889 0.097784
vn -0.957409 -0.288096 -0.019206
vn -0.986834 -0.010835 0.161376
vn -0.986834 -0.010835 0.161376
vn -0.440453 0.880055 0.177494
vn -0.522703 0.846889 0.097784
vn 0.364132 -0.405764 0.83831
vn 0.239491 -0.402397 0.883584
vn 0.330919 -0.54497 0.77039
vn 0.364132 -0.405764 0.83831
vn 0.330919 -0.54497 0.77039
vn 0.0 -0.360645 0.932703
vn 0.965078 -0.231916 -0.121815
vn 0.821598 -0.474325 -0.316216
vn 0.823443 -0.544241 -0.160447
vn 0.64361 -0.101148 0.75864
vn 0.965078 -0.231916 -0.121815
vn 0.564952 -0.624489 0.539299
vn 0.918629 0.051238 0.391785
vn 0.439912 0.606417 0.662372
vn 0.518056 0.837281 0.17487
vn 0.965078 -0.231916 -0.121815
vn 0.991379 0.123688 0.043235
vn 0.518056 0.837281 0.17487
vn 0.47069 -0.245414 0.84748
vn 0.507119 -0.225793 0.831774
vn 0.182723 -0.062186 0.981196
vn -0.006725 0.258281 0.966046
vn 0.239491 -0.402397 0.883584
vn 0.182723 -0.062186 0.981196
vn -0.184576 -0.394826 0.900025
vn -0.21278 -0.517861 0.82858
vn 0.0 -0.360645 0.932703
vn -0.184576 -0.394826 0.900025
vn 0.0 -0.360645 0.932703
vn -0.513859 -0.614962 0.59814
vn -0.823443 -0.544241 -0.160447
vn -0.821598 -0.474325 -0.316216
vn -0.965078 -0.231916 -0.121815
vn -0.720886 -0.636657 0.273845
vn -0.965078 -0.231916 -0.121815
vn -0.536658 -0.160088 0.828475
vn -0.677218 0.723151 0.135753
vn -0.2636 0.593455 0.760478
vn -0.918629 0.051238 0.391785
vn -0.677218 0.723151 0.135753
vn -0.991379 0.123688 0.043235
vn -0.965078 -0.231916 -0.121815
vn -0.42804 -0.223801 0.875611
vn -0.468368 -0.243106 0.84943
vn -0.375192 -0.276515 0.884743
vn -0.42804 -0.223801 0.875611
vn -0.184576 -0.394826 0.900025
vn 0.004161 0.369562 0.929197
vn -0.213994 0.445014 0.86958
vn 0.324532 0.386625 0.86325
vn 0.182723 -0.062186 0.981196
vn -0.213994 0.445014 0.86958
vn 0.182723 -0.062186 0.981196
vn -0.42804 -0.223801 0.875611
vn 0.518056 0.837281 0.17487
vn 0.324532 0.386625 0.86325
vn -0.213994 0.445014 0.86958
vn 0.518056 0.837281 0.17487
vn -0.213994 0.445014 0.86958
vn -0.677218 0.723151 0.135753
vn -0.843732 0.519913 0.133445
vn -0.544639 0.831632 0.10843
vn -0.544639 0.831632 0.10843
vn -0.891309 0.388842 0.233172
vn -0.956514 0.04455 0.288264
vn -0.986834 -0.010835 0.161376
vn -0.843732 0.519913 0.133445
vn -0.498635 0.354013 0.791225
vn -0.891309 0.388842 0.233172
vn -0.929344 -0.341289 0.14086
vn -0.550879 -0.802751 0.228305
vn -0.21278 -0.517861 0.82858
vn 0.713086 0.675711 0.186878
vn 0.731887 0.453171 0.508899
vn 0.889386 0.383519 0.248808
vn 0.596037 -0.031975 0.80232
vn 0.992646 0.020852 0.119247
vn 0.889386 0.383519 0.248808
vn 0.364132 -0.405764 0.83831
vn 0.525736 -0.800728 0.287118
vn 0.525736 -0.800728 0.287118
vn 0.548422 0.831133 0.091926
vn 0.86837 0.48049 0.122733
vn 0.802649 0.561092 0.202311
vn -0.406258 0.258007 0.876577
vn -0.440453 0.880055 0.177494
vn -0.880617 0.332125 0.337945
vn -0.880617 0.332125 0.337945
vn -0.813848 0.490691 0.311247
vn -0.406258 0.258007 0.876577
vn 0.0 0.99535 0.096324
vn 0.0 0.99535 0.096324
vn -0.440453 0.880055 0.177494
vn -0.440453 0.880055 0.177494
vn -0.690499 0.656659 0.303331
vn 0.0 0.99535 0.096324
vn 0.00473 -0.478343 0.878161
vn 0.0 -0.99535 -0.096324
vn 0.0 -0.99535 -0.096324
vn 0.304604 0.93162 0.198242
vn 0.516031 0.829757 0.212639
vn 0.0 0.99535 0.096324
vn 0.0 0.99535 0.096324
vn 0.0 0.99535 0.096324
vn 0.304604 0.93162 0.198242
vn 0.868602 0.363108 0.337169
vn 0.912442 0.235931 0.334345
vn 0.516031 0.829757 0.212639
vn 0.516031 0.829757 0.212639
vn 0.163955 0.35543 0.920211
vn 0.868602 0.363108 0.337169
vn -0.383061 -0.910435 0.156115
vn 0.480528 -0.86357 0.152772
vn -0.000448 -0.988395 0.151902
vn -0.383061 -0.910435 0.156115
vn -0.000448 -0.988395 0.151902
vn 0.000661 -0.988407 0.151828
vn 0.000661 -0.988308 0.152468
vn -0.383061 -0.910435 0.156115
vn 0.000661 -0.988407 0.151828
vn -0.000448 -0.988395 0.151902
vn 0.480528 -0.86357 0.152772
vn -0.000673 -0.988309 0.152464
vn -0.000673 -0.988309 0.152464
vn 0.295662 -0.894359 0.335716
vn 0.0 -0.988174 0.153337
vn 0.0 -0.988174 0.153337
vn -0.373594 -0.880286 0.292444
vn 0.000661 -0.988308 0.152468
vn 0.0 0.999981 -0.00611
vn 0.0 0.999981 -0.00611
vn 0.0 0.999981 -0.00611
vn 0.0 0.999981 -0.00611
vn 0.0 0.999981 -0.00611
vn 0.0 0.999981 -0.00611
vn 0.0 1.0 0.0
vn 0.0 1.0 0.0
vn 0.0 1.0 0.0
vn 0.0 1.0 0.0
vn -0.0 1.0 0.0
vn 0.0 1.0 0.0
vn 0.0 -1.0 0.0
vn 0.0 -1.0 0.0
vn 0.0 -1.0 0.0
vn 0.0 -1.0 0.0
vn -0.0 -1.0 0.0
vn 0.0 -1.0 0.0
vn -1.0 0.0 0.0
vn -1.0 0.0 0.0
vn -1.0 0.0 0.0
vn -1.0 0.0 0.0
vn -1.0 0.0 0.0
vn -1.0 0.0 0.0
vn 1.0 0.0 -0.0
vn 1.0 0.0 -0.0
vn 1.0 0.0 -0.0
vn 1.0 0.0 -0.0
vn 1.0 0.0 -0.0
vn 1.0 0.0 -0.0
vn -0.0 0.0 -1.0
vn -0.0 0.0 -1.0
vn 0.0 0.0 -1.0
vn -0.0 0.0 -1.0
vn -0.0 0.0 -1.0
vn -0.0 0.0 -1.0
vn -0.0 -0.0 1.0
vn -0.0 -0.0 1.0
vn 0.0 -0.0 1.0
vn -0.0 -0.0 1.0
vn -0.0 -0.0 1.0
vn -0.0 -0.0 1.0

# main, 77 grouped triangles

usemtl a
o main
g main

f 1/1/1 2/2/2 3/3/3
f 3/4/4 4/5/5 1/6/6
f 5/7/7 6/8/8 7/9/9
f 5/10/10 8/11/11 6/12/12
f 9/13/13 2/14/14 1/15/15
f 1/16/16 10/17/17 9/18/18
f 1/19/19 4/20/20 11/21/21
f 11/22/22 10/23/23 1/24/24
f 6/25/25 8/26/26 12/27/27
f 12/28/28 13/29/29 6/30/30
f 14/31/31 7/32/32 6/33/33
f 6/34/34 13/35/35 14/36/36
f 11/37/37 4/38/38 7/39/39
f 11/40/40 7/41/41 14/42/42
f 15/43/43 16/44/44 17/45/45
f 15/46/46 17/47/47 18/48/48
f 13/49/49 12/50/50 18/51/51
f 18/52/52 17/53/53 13/54/54
f 15/55/55 9/56/56 10/57/57
f 10/58/58 16/59/59 15/60/60
f 19/61/61 20/62/62 21/63/63
f 19/64/64 21/65/65 22/66/66
f 23/67/67 24/68/68 21/69/69
f 20/70/70 23/71/71 21/72/72
f 20/73/73 25/74/74 26/75/75
f 23/76/76 20/77/77 26/78/78
f 20/79/79 19/80/80 27/81/81
f 25/82/82 20/83/83 27/84/84
f 28/85/85 29/86/86 30/87/87
f 28/88/88 30/89/89 31/90/90
f 31/91/91 32/92/92 33/93/93
f 31/94/94 33/95/95 28/96/96
f 34/97/97 35/98/98 28/99/99
f 34/100/100 28/101/101 33/102/102
f 36/103/103 29/104/104 28/105/105
f 36/106/106 28/107/107 35/108/108
f 35/109/109 25/110/110 27/111/111
f 35/112/112 27/113/113 36/114/114
f 26/115/115 25/116/116 35/117/117
f 26/118/118 35/119/119 34/120/120
f 10/121/121 37/122/122 38/123/123
f 39/124/124 40/125/125 10/126/126
f 10/127/127 29/128/128 39/129/129
f 10/130/130 38/131/131 29/132/132
f 41/133/133 19/134/134 42/135/135
f 19/136/136 13/137/137 42/138/138
f 19/139/139 43/140/140 44/141/141
f 44/142/142 13/143/143 19/144/144
f 36/145/145 16/146/146 45/147/147
f 45/148/148 46/149/149 36/150/150
f 47/151/151 48/152/152 16/153/153
f 16/154/154 36/155/155 47/156/156
f 36/157/157 16/158/158 48/159/159
f 27/160/160 17/161/161 49/162/162
f 49/163/163 50/164/164 27/165/165
f 51/166/166 52/167/167 17/168/168
f 17/169/169 27/170/170 51/171/171
f 3/172/172 5/173/173 53/174/174
f 3/175/175 53/176/176 54/177/177
f 55/178/178 3/179/179 54/180/180
f 53/181/181 5/182/182 56/183/183
f 56/184/184 7/185/185 57/186/186
f 58/187/187 4/188/188 55/189/189
f 59/190/190 60/191/191 61/192/192
f 59/193/193 61/194/194 62/195/195
f 63/196/196 64/197/197 65/198/198
f 64/199/199 66/200/200 65/201/201
f 67/202/202 68/203/203 69/204/204
f 68/205/205 70/206/206 69/207/207
f 65/208/208 68/209/209 63/210/210
f 65/211/211 70/212/212 68/213/213
f 69/214/214 64/215/215 67/216/216
f 69/217/217 66/218/218 64/219/219
f 65/220/220 69/221/221 70/222/222
f 65/223/223 66/224/224 69/225/225
f 64/226/226 68/227/227 67/228/228
f 64/229/229 63/230/230 68/231/231
