# Wavefront OBJ file
# Exported by Misfit Model 3D 1.3.8
# Mon Jan 20 13:58:55 2020

mtllib md5_head.mtl

# 57 Vertices
v 418.0 8.0 333.0
v 420.0 -205.0 194.0
v 467.0 24.0 56.0
v 394.0 -120.0 331.0
v 267.0 -175.0 161.0
v 203.0 58.0 527.0
v 198.0 65.0 497.0
v 136.0 52.0 547.0
v 388.0 463.0 261.0
v 414.0 463.0 306.0
v 362.0 463.0 306.0
v 556.0 654.0 118.0
v 727.0 533.0 163.0
v 465.0 691.0 139.0
v -468.0 24.0 56.0
v -420.0 -205.0 194.0
v -418.0 8.0 333.0
v -267.0 -175.0 161.0
v -395.0 -120.0 331.0
v -198.0 65.0 497.0
v -204.0 58.0 527.0
v -136.0 52.0 547.0
v -388.0 463.0 261.0
v -414.0 463.0 306.0
v -362.0 463.0 306.0
v -556.0 654.0 118.0
v -728.0 533.0 163.0
v -465.0 691.0 139.0
v 556.0 693.0 -613.0
v -556.0 693.0 -613.0
v -136.0 693.0 467.0
v -173.0 721.0 149.0
v -354.0 691.0 139.0
v -136.0 692.0 546.0
v 136.0 692.0 546.0
v 136.0 693.0 467.0
v 354.0 691.0 139.0
v 177.0 721.0 149.0
v 136.0 723.0 467.0
v -136.0 723.0 467.0
v 0.0 -208.0 35.0
v 420.0 -205.0 -587.0
v -526.0 24.0 -222.0
v -420.0 -205.0 -587.0
v 526.0 24.0 -222.0
v 420.0 -205.0 -1072.0
v 556.0 693.0 -975.0
v -420.0 -205.0 -1072.0
v -556.0 693.0 -975.0
v -563.211905 746.712977 -863.842818
v 558.00671 746.712977 -863.842818
v -563.211905 746.712982 -1090.923329
v 558.00671 746.712982 -1090.923329
v 558.00671 -231.712944 -863.842851
v -563.211905 -231.712944 -863.842851
v 558.00671 -231.712939 -1090.923362
v -563.211905 -231.712939 -1090.923362

# 228 Texture Coordinates
vt 0.787629 0.232009
vt 0.789003 0.003222
vt 0.821306 0.249194
vt 0.771134 0.094522
vt 0.683849 0.035446
vt 0.789003 0.003222
vt 0.787629 0.232009
vt 0.771134 0.094522
vt 0.789003 0.003222
vt 0.639863 0.285714
vt 0.636426 0.293233
vt 0.787629 0.232009
vt 0.593814 0.27927
vt 0.771134 0.094522
vt 0.787629 0.232009
vt 0.636426 0.293233
vt 0.593814 0.27927
vt 0.787629 0.232009
vt 0.76701 0.72073
vt 0.636426 0.293233
vt 0.639863 0.285714
vt 0.78488 0.72073
vt 0.76701 0.72073
vt 0.639863 0.285714
vt 0.749141 0.72073
vt 0.593814 0.27927
vt 0.636426 0.293233
vt 0.76701 0.72073
vt 0.749141 0.72073
vt 0.636426 0.293233
vt 0.882474 0.925886
vt 0.76701 0.72073
vt 0.78488 0.72073
vt 1.0 0.795918
vt 0.882474 0.925886
vt 0.78488 0.72073
vt 0.819931 0.965628
vt 0.749141 0.72073
vt 0.76701 0.72073
vt 0.882474 0.925886
vt 0.819931 0.965628
vt 0.76701 0.72073
vt 0.178694 0.249194
vt 0.211684 0.003222
vt 0.213058 0.232009
vt 0.211684 0.003222
vt 0.316838 0.035446
vt 0.228866 0.094522
vt 0.211684 0.003222
vt 0.228866 0.094522
vt 0.213058 0.232009
vt 0.213058 0.232009
vt 0.364261 0.293233
vt 0.360137 0.285714
vt 0.213058 0.232009
vt 0.228866 0.094522
vt 0.406873 0.27927
vt 0.213058 0.232009
vt 0.406873 0.27927
vt 0.364261 0.293233
vt 0.360137 0.285714
vt 0.364261 0.293233
vt 0.233677 0.72073
vt 0.360137 0.285714
vt 0.233677 0.72073
vt 0.215808 0.72073
vt 0.364261 0.293233
vt 0.406873 0.27927
vt 0.251546 0.72073
vt 0.364261 0.293233
vt 0.251546 0.72073
vt 0.233677 0.72073
vt 0.215808 0.72073
vt 0.233677 0.72073
vt 0.118213 0.925886
vt 0.215808 0.72073
vt 0.118213 0.925886
vt 0.0 0.795918
vt 0.233677 0.72073
vt 0.251546 0.72073
vt 0.180756 0.965628
vt 0.233677 0.72073
vt 0.180756 0.965628
vt 0.118213 0.925886
vt 0.819931 0.965628
vt 0.882474 0.925886
vt 0.882474 0.967777
vt 0.180756 0.965628
vt 0.118213 0.967777
vt 0.118213 0.925886
vt 0.882474 0.925886
vt 1.0 0.795918
vt 0.882474 0.967777
vt 0.118213 0.925886
vt 0.118213 0.967777
vt 0.0 0.795918
vt 0.406873 0.967777
vt 0.381443 0.997852
vt 0.257045 0.965628
vt 0.406873 0.967777
vt 0.406873 0.966702
vt 0.593814 0.966702
vt 0.406873 0.967777
vt 0.593814 0.966702
vt 0.593814 0.967777
vt 0.406873 0.966702
vt 0.406873 0.967777
vt 0.257045 0.965628
vt 0.593814 0.966702
vt 0.743643 0.965628
vt 0.621993 0.997852
vt 0.621993 0.997852
vt 0.593814 0.967777
vt 0.593814 0.966702
vt 0.257045 0.965628
vt 0.381443 0.997852
vt 0.621993 0.997852
vt 0.257045 0.965628
vt 0.621993 0.997852
vt 0.743643 0.965628
vt 0.406873 0.967777
vt 0.593814 0.967777
vt 0.593814 1.0
vt 0.406873 0.967777
vt 0.593814 1.0
vt 0.406873 1.0
vt 0.593814 1.0
vt 0.593814 0.967777
vt 0.621993 0.997852
vt 0.406873 0.967777
vt 0.406873 1.0
vt 0.381443 0.997852
vt 0.500344 0.0
vt 0.789003 0.003222
vt 0.683849 0.035446
vt 0.316838 0.035446
vt 0.211684 0.003222
vt 0.500344 0.0
vt 0.789003 0.003222
vt 0.500344 0.0
vt 0.211684 0.003222
vt 0.789003 0.003222
vt 0.789003 0.003222
vt 0.500344 0.0
vt 0.178694 0.249194
vt 0.138832 0.249194
vt 0.211684 0.003222
vt 0.211684 0.003222
vt 0.211684 0.003222
vt 0.178694 0.249194
vt 0.821306 0.249194
vt 0.789003 0.003222
vt 0.789003 0.003222
vt 0.789003 0.003222
vt 0.861856 0.249194
vt 0.821306 0.249194
vt 0.118213 0.967777
vt 0.211684 0.003222
vt 0.138832 0.249194
vt 0.861856 0.249194
vt 0.789003 0.003222
vt 0.882474 0.967777
vt 0.789003 0.003222
vt 0.789003 0.003222
vt 0.882474 0.967777
vt 0.789003 0.003222
vt 0.882474 0.967777
vt 0.882474 0.967777
vt 0.211684 0.003222
vt 0.789003 0.003222
vt 0.789003 0.003222
vt 0.211684 0.003222
vt 0.789003 0.003222
vt 0.211684 0.003222
vt 0.211684 0.003222
vt 0.118213 0.967777
vt 0.118213 0.967777
vt 0.211684 0.003222
vt 0.118213 0.967777
vt 0.211684 0.003222
vt 0.118213 0.967777
vt 0.118213 0.967777
vt 0.882474 0.967777
vt 0.118213 0.967777
vt 0.882474 0.967777
vt 0.882474 0.967777
vt 0.882474 0.967777
vt 0.118213 0.967777
vt 0.180756 0.965628
vt 0.882474 0.967777
vt 0.180756 0.965628
vt 0.819931 0.965628
vt 1.0 0.0
vt 0.0 0.0
vt 0.0 1.0
vt 1.0 0.0
vt 0.0 0.0
vt 0.0 1.0
vt 1.0 0.0
vt 0.0 0.0
vt 0.0 1.0
vt 1.0 0.0
vt 0.0 0.0
vt 0.0 1.0
vt 0.0 1.0
vt 0.0 0.0
vt 1.0 0.0
vt 0.0 1.0
vt 0.0 0.0
vt 1.0 0.0
vt 0.0 1.0
vt 0.0 0.0
vt 1.0 0.0
vt 0.0 1.0
vt 0.0 0.0
vt 1.0 0.0
vt 0.0 1.0
vt 0.0 0.0
vt 1.0 0.0
vt 0.0 1.0
vt 0.0 0.0
vt 1.0 0.0
vt 0.0 1.0
vt 0.0 0.0
vt 1.0 0.0
vt 0.0 1.0
vt 0.0 0.0
vt 1.0 0.0

# 228 Vertex Normals
vn 0.833895 -0.080606 0.546005
vn 0.882262 -0.449755 0.139043
vn 0.941643 -0.316651 0.114195
vn 0.545807 -0.49532 0.675834
vn -0.277652 -0.733188 0.620761
vn 0.131354 -0.858953 0.49492
vn 0.833895 -0.080606 0.546005
vn 0.545807 -0.49532 0.675834
vn 0.573726 -0.710291 0.40783
vn -0.355039 -0.92176 -0.155904
vn -0.355039 -0.92176 -0.155904
vn -0.355039 -0.92176 -0.155904
vn 0.605733 0.035636 0.79487
vn 0.545807 -0.49532 0.675834
vn 0.833895 -0.080606 0.546005
vn 0.708509 0.03853 0.704649
vn 0.605733 0.035636 0.79487
vn 0.833895 -0.080606 0.546005
vn -0.512461 0.65784 0.551933
vn -0.802869 0.536911 0.259091
vn -0.75532 0.56411 0.333573
vn -0.394962 0.724553 0.564826
vn -0.512461 0.65784 0.551933
vn -0.75532 0.56411 0.333573
vn 0.794573 -0.004712 0.607151
vn 0.605733 0.035636 0.79487
vn 0.708509 0.03853 0.704649
vn 0.740098 0.074979 0.668306
vn 0.794573 -0.004712 0.607151
vn 0.708509 0.03853 0.704649
vn 0.229416 0.83432 0.501277
vn -0.512461 0.65784 0.551933
vn -0.394962 0.724553 0.564826
vn 0.434268 0.780781 0.449213
vn 0.229416 0.83432 0.501277
vn -0.394962 0.724553 0.564826
vn 0.644915 0.504109 0.57442
vn 0.794573 -0.004712 0.607151
vn 0.740098 0.074979 0.668306
vn 0.229416 0.83432 0.501277
vn 0.514309 0.724467 0.458949
vn -0.002012 0.588413 0.808558
vn -0.941248 -0.317726 0.114463
vn -0.756503 -0.644023 0.113743
vn -0.835241 -0.078211 0.544293
vn -0.104337 -0.919564 0.378834
vn 0.277681 -0.732653 0.62138
vn -0.550132 -0.492059 0.674709
vn -0.486082 -0.804792 0.340638
vn -0.550132 -0.492059 0.674709
vn -0.835241 -0.078211 0.544293
vn 0.348847 -0.925702 -0.146228
vn 0.348847 -0.925702 -0.146228
vn 0.348847 -0.925702 -0.146228
vn -0.835241 -0.078211 0.544293
vn -0.550132 -0.492059 0.674709
vn -0.605847 0.03712 0.794715
vn -0.835241 -0.078211 0.544293
vn -0.605847 0.03712 0.794715
vn -0.708509 0.03853 0.704649
vn 0.747399 0.566995 0.346284
vn 0.788349 0.545285 0.284903
vn 0.506539 0.657593 0.557664
vn 0.747399 0.566995 0.346284
vn 0.506539 0.657593 0.557664
vn 0.39551 0.724229 0.564858
vn -0.708509 0.03853 0.704649
vn -0.605847 0.03712 0.794715
vn -0.794573 -0.004712 0.607151
vn -0.708509 0.03853 0.704649
vn -0.794573 -0.004712 0.607151
vn -0.740098 0.074979 0.668306
vn 0.39551 0.724229 0.564858
vn 0.506539 0.657593 0.557664
vn -0.228605 0.834623 0.501144
vn 0.39551 0.724229 0.564858
vn -0.228605 0.834623 0.501144
vn -0.432496 0.781816 0.449123
vn -0.740098 0.074979 0.668306
vn -0.794573 -0.004712 0.607151
vn -0.644915 0.504109 0.57442
vn -0.001874 0.58624 0.810136
vn -0.410207 0.835006 0.366736
vn -0.228605 0.834623 0.501144
vn 0.514309 0.724467 0.458949
vn 0.229416 0.83432 0.501277
vn 0.472212 0.881369 -0.014258
vn -0.410207 0.835006 0.366736
vn -0.645846 0.763203 -0.020087
vn -0.228605 0.834623 0.501144
vn 0.229416 0.83432 0.501277
vn 0.434268 0.780781 0.449213
vn 0.472212 0.881369 -0.014258
vn -0.228605 0.834623 0.501144
vn -0.645846 0.763203 -0.020087
vn -0.432496 0.781816 0.449123
vn -0.251636 0.841625 0.477856
vn -0.615773 0.687168 -0.385519
vn -0.062057 0.82494 -0.561803
vn -0.049285 0.998133 0.036079
vn -0.014105 0.99982 0.012656
vn -0.08636 0.995733 0.032535
vn -0.049285 0.998133 0.036079
vn -0.08636 0.995733 0.032535
vn -0.261472 0.965134 0.012217
vn -0.014105 0.99982 0.012656
vn -0.285901 0.95623 0.062335
vn -0.062057 0.82494 -0.561803
vn -0.08636 0.995733 0.032535
vn 0.109447 0.828699 -0.548888
vn 0.215266 0.809817 -0.545763
vn -0.108313 0.804632 -0.583811
vn -0.261472 0.965134 0.012217
vn -0.08636 0.995733 0.032535
vn -0.062057 0.82494 -0.561803
vn -0.108202 0.833451 -0.541897
vn -0.108313 0.804632 -0.583811
vn -0.062057 0.82494 -0.561803
vn -0.108313 0.804632 -0.583811
vn 0.109447 0.828699 -0.548888
vn -0.431564 0.364113 0.825333
vn 0.660351 0.0 0.750957
vn 0.42246 0.0 0.906382
vn -0.431564 0.364113 0.825333
vn 0.42246 0.0 0.906382
vn -0.664992 0.0 0.746851
vn 0.42246 0.0 0.906382
vn 0.660351 0.0 0.750957
vn 0.756699 0.638305 0.141329
vn -0.370268 0.616047 0.695261
vn -0.664992 0.0 0.746851
vn -0.756322 0.638113 0.144186
vn -0.00139 -0.907074 0.420968
vn 0.131354 -0.858953 0.49492
vn -0.277652 -0.733188 0.620761
vn 0.277681 -0.732653 0.62138
vn -0.104337 -0.919564 0.378834
vn -0.00139 -0.907074 0.420968
vn 0.665036 -0.746794 -0.005076
vn -0.00139 -0.907074 0.420968
vn -0.486082 -0.804792 0.340638
vn 0.665036 -0.746794 -0.005076
vn 0.573726 -0.710291 0.40783
vn -0.00139 -0.907074 0.420968
vn -0.941248 -0.317726 0.114463
vn -0.915266 -0.402634 -0.013192
vn -0.965281 -0.261162 -0.00516
vn -0.965281 -0.261162 -0.00516
vn -0.756503 -0.644023 0.113743
vn -0.941248 -0.317726 0.114463
vn 0.941643 -0.316651 0.114195
vn 0.882262 -0.449755 0.139043
vn 0.665036 -0.746794 -0.005076
vn 0.665036 -0.746794 -0.005076
vn 0.914592 -0.4042 -0.012013
vn 0.941643 -0.316651 0.114195
vn -0.89585 0.44343 -0.02868
vn -0.965281 -0.261162 -0.00516
vn -0.915266 -0.402634 -0.013192
vn 0.914592 -0.4042 -0.012013
vn 0.665036 -0.746794 -0.005076
vn 0.896174 0.442773 -0.028694
vn 0.665036 -0.746794 -0.005076
vn 0.65202 -0.758202 0.0
vn 0.988725 -0.14974 0.0
vn 0.665036 -0.746794 -0.005076
vn 0.988725 -0.14974 0.0
vn 0.896174 0.442773 -0.028694
vn -0.417851 -0.908515 0.0
vn 0.65202 -0.758202 0.0
vn 0.665036 -0.746794 -0.005076
vn -0.417851 -0.908515 0.0
vn 0.665036 -0.746794 -0.005076
vn -0.486082 -0.804792 0.340638
vn -0.965281 -0.261162 -0.00516
vn -0.89585 0.44343 -0.02868
vn -0.988725 -0.14974 0.0
vn -0.965281 -0.261162 -0.00516
vn -0.988725 -0.14974 0.0
vn -0.417851 -0.908515 0.0
vn 0.0 1.0 0.0
vn -0.246624 0.968795 0.024762
vn 0.164082 0.986302 0.016879
vn 0.0 1.0 0.0
vn 0.164082 0.986302 0.016879
vn 0.0 1.0 0.0
vn 0.164082 0.986302 0.016879
vn -0.246624 0.968795 0.024762
vn -0.209762 0.940802 0.266255
vn 0.164082 0.986302 0.016879
vn -0.209762 0.940802 0.266255
vn 0.285136 0.887951 0.360889
vn -0.0 1.0 0.0
vn -0.0 1.0 0.0
vn -0.0 1.0 0.0
vn -0.0 1.0 0.0
vn -0.0 1.0 0.0
vn -0.0 1.0 0.0
vn -0.0 -1.0 -0.0
vn -0.0 -1.0 -0.0
vn -0.0 -1.0 -0.0
vn -0.0 -1.0 -0.0
vn 0.0 -1.0 -0.0
vn -0.0 -1.0 -0.0
vn -1.0 0.0 0.0
vn -1.0 0.0 0.0
vn -1.0 0.0 0.0
vn -1.0 0.0 0.0
vn -1.0 0.0 -0.0
vn -1.0 0.0 0.0
vn 1.0 0.0 0.0
vn 1.0 0.0 0.0
vn 1.0 0.0 0.0
vn 1.0 0.0 0.0
vn 1.0 0.0 0.0
vn 1.0 0.0 0.0
vn 0.0 -0.0 -1.0
vn 0.0 -0.0 -1.0
vn 0.0 -0.0 -1.0
vn 0.0 -0.0 -1.0
vn 0.0 -0.0 -1.0
vn 0.0 -0.0 -1.0
vn 0.0 0.0 1.0
vn 0.0 0.0 1.0
vn 0.0 0.0 1.0
vn 0.0 0.0 1.0
vn 0.0 0.0 1.0
vn 0.0 0.0 1.0

# main, 76 grouped triangles

o main
g main

f 1/1/1 2/2/2 3/3/3
f 4/4/4 5/5/5 2/6/6
f 1/7/7 4/8/8 2/9/9
f 6/10/10 7/11/11 1/12/12
f 8/13/13 4/14/14 1/15/15
f 7/16/16 8/17/17 1/18/18
f 9/19/19 7/20/20 6/21/21
f 10/22/22 9/23/23 6/24/24
f 11/25/25 8/26/26 7/27/27
f 9/28/28 11/29/29 7/30/30
f 12/31/31 9/32/32 10/33/33
f 13/34/34 12/35/35 10/36/36
f 14/37/37 11/38/38 9/39/39
f 12/40/40 14/41/41 9/42/42
f 15/43/43 16/44/44 17/45/45
f 16/46/46 18/47/47 19/48/48
f 16/49/49 19/50/50 17/51/51
f 17/52/52 20/53/53 21/54/54
f 17/55/55 19/56/56 22/57/57
f 17/58/58 22/59/59 20/60/60
f 21/61/61 20/62/62 23/63/63
f 21/64/64 23/65/65 24/66/66
f 20/67/67 22/68/68 25/69/69
f 20/70/70 25/71/71 23/72/72
f 24/73/73 23/74/74 26/75/75
f 24/76/76 26/77/77 27/78/78
f 23/79/79 25/80/80 28/81/81
f 23/82/82 28/83/83 26/84/84
f 14/85/85 12/86/86 29/87/87
f 28/88/88 30/89/89 26/90/90
f 12/91/91 13/92/92 29/93/93
f 26/94/94 30/95/95 27/96/96
f 31/97/97 32/98/98 33/99/99
f 31/100/100 34/101/101 35/102/102
f 31/103/103 35/104/104 36/105/105
f 34/106/106 31/107/107 33/108/108
f 35/109/109 37/110/110 38/111/111
f 38/112/112 36/113/113 35/114/114
f 33/115/115 32/116/116 38/117/117
f 33/118/118 38/119/119 37/120/120
f 31/121/121 36/122/122 39/123/123
f 31/124/124 39/125/125 40/126/126
f 39/127/127 36/128/128 38/129/129
f 31/130/130 40/131/131 32/132/132
f 41/133/133 2/134/134 5/135/135
f 18/136/136 16/137/137 41/138/138
f 42/139/139 41/140/140 16/141/141
f 42/142/142 2/143/143 41/144/144
f 15/145/145 43/146/146 44/147/147
f 44/148/148 16/149/149 15/150/150
f 3/151/151 2/152/152 42/153/153
f 42/154/154 45/155/155 3/156/156
f 30/157/157 44/158/158 43/159/159
f 45/160/160 42/161/161 29/162/162
f 42/163/163 46/164/164 47/165/165
f 42/166/166 47/167/167 29/168/168
f 48/169/169 46/170/170 42/171/171
f 48/172/172 42/173/173 16/174/174
f 44/175/175 30/176/176 49/177/177
f 44/178/178 49/179/179 48/180/180
f 49/181/181 30/182/182 29/183/183
f 49/184/184 29/185/185 47/186/186
f 29/187/187 30/188/188 28/189/189
f 29/190/190 28/191/191 14/192/192
f 50/193/193 51/194/194 52/195/195
f 51/196/196 53/197/197 52/198/198
f 54/199/199 55/200/200 56/201/201
f 55/202/202 57/203/203 56/204/204
f 52/205/205 55/206/206 50/207/207
f 52/208/208 57/209/209 55/210/210
f 56/211/211 51/212/212 54/213/213
f 56/214/214 53/215/215 51/216/216
f 52/217/217 56/218/218 57/219/219
f 52/220/220 53/221/221 56/222/222
f 51/223/223 55/224/224 54/225/225
f 51/226/226 50/227/227 55/228/228
