# Wavefront OBJ file
# Exported by Misfit Model 3D 1.3.8
# Mon Jan 20 09:57:37 2020

mtllib dw5_head.mtl

# 127 Vertices
v 195.0 0.0 -130.0
v -193.0 0.0 -130.0
v -193.0 0.0 137.0
v 195.0 0.0 137.0
v 152.0 433.0 -316.0
v 152.0 433.0 393.0
v -168.0 433.0 393.0
v -168.0 433.0 -316.0
v -350.0 206.0 7.0
v -250.0 206.0 7.0
v -250.0 206.0 -136.0
v -350.0 206.0 -136.0
v -250.0 335.0 69.0
v -331.0 335.0 69.0
v -331.0 335.0 -109.0
v -250.0 335.0 -109.0
v 261.0 206.0 -136.0
v 261.0 206.0 7.0
v 357.0 206.0 7.0
v 357.0 206.0 -136.0
v 338.0 335.0 -109.0
v 338.0 335.0 69.0
v 261.0 335.0 69.0
v 261.0 335.0 -109.0
v 34.0 500.0 96.0
v -137.0 500.0 96.0
v -137.0 500.0 -234.0
v 34.0 500.0 -234.0
v -193.0 0.0 -130.0
v -250.0 138.0 -234.0
v -250.0 138.0 218.0
v -193.0 0.0 137.0
v 195.0 0.0 -130.0
v 195.0 0.0 137.0
v 261.0 138.0 218.0
v 261.0 138.0 -234.0
v -250.0 344.0 -316.0
v -250.0 344.0 340.0
v 261.0 344.0 340.0
v 261.0 344.0 -316.0
v 152.0 433.0 393.0
v 152.0 433.0 -316.0
v -168.0 433.0 -316.0
v -168.0 433.0 393.0
v 57.0 434.0 153.0
v 34.0 500.0 96.0
v 34.0 500.0 -234.0
v 57.0 434.0 -259.0
v -137.0 500.0 96.0
v -170.0 434.0 153.0
v -170.0 434.0 -259.0
v -137.0 500.0 -234.0
v -170.0 434.0 153.0
v -137.0 500.0 96.0
v 34.0 500.0 96.0
v 57.0 434.0 153.0
v 261.0 138.0 218.0
v 195.0 0.0 137.0
v -250.0 138.0 218.0
v 195.0 0.0 -130.0
v 261.0 138.0 -234.0
v -193.0 0.0 -130.0
v -193.0 0.0 137.0
v -250.0 138.0 -234.0
v -250.0 344.0 340.0
v -168.0 433.0 393.0
v 152.0 433.0 393.0
v 261.0 344.0 340.0
v -250.0 344.0 -316.0
v 261.0 344.0 -316.0
v 152.0 433.0 -316.0
v -168.0 433.0 -316.0
v -350.0 206.0 7.0
v -331.0 335.0 69.0
v -250.0 335.0 69.0
v -250.0 206.0 7.0
v -350.0 206.0 -136.0
v -250.0 206.0 -136.0
v -250.0 335.0 -109.0
v -331.0 335.0 -109.0
v 261.0 335.0 69.0
v 338.0 335.0 69.0
v 357.0 206.0 7.0
v 261.0 206.0 7.0
v 261.0 335.0 -109.0
v 261.0 206.0 -136.0
v 357.0 206.0 -136.0
v 338.0 335.0 -109.0
v -170.0 434.0 -259.0
v 57.0 434.0 -259.0
v 34.0 500.0 -234.0
v -137.0 500.0 -234.0
v 67.0 89.0 189.0
v 25.0 194.0 545.0
v -31.0 194.0 545.0
v -72.0 89.0 189.0
v 113.0 257.0 288.0
v 38.0 248.0 565.0
v -123.0 257.0 288.0
v -46.0 248.0 565.0
v -59.0 394.0 370.0
v -49.0 301.0 544.0
v -57.0 400.0 374.0
v -47.0 308.0 548.0
v -53.0 301.0 544.0
v -65.0 394.0 370.0
v -67.0 400.0 374.0
v -55.0 308.0 548.0
v -44.0 247.0 572.0
v -49.0 245.0 565.0
v -51.0 244.0 572.0
v 49.0 400.0 374.0
v 41.0 301.0 544.0
v 51.0 394.0 370.0
v 39.0 308.0 548.0
v 45.0 301.0 544.0
v 57.0 394.0 370.0
v 47.0 308.0 548.0
v 59.0 400.0 374.0
v 36.0 247.0 572.0
v 41.0 245.0 565.0
v 43.0 244.0 572.0
v -48.0 241.0 569.0
v 39.0 241.0 569.0
v 37.0 245.0 564.0
v -45.0 245.0 564.0
v -44.0 247.0 572.0

# 270 Texture Coordinates
vt 0.770863 0.0
vt 0.222065 0.0
vt 0.222065 0.0
vt 0.770863 0.0
vt 0.222065 0.0
vt 0.770863 0.0
vt 0.710042 0.866
vt 0.710042 0.866
vt 0.257426 0.866
vt 0.710042 0.866
vt 0.257426 0.866
vt 0.257426 0.866
vt 0.0 0.412
vt 0.141443 0.412
vt 0.141443 0.412
vt 0.0 0.412
vt 0.141443 0.412
vt 0.0 0.412
vt 0.141443 0.67
vt 0.026874 0.67
vt 0.026874 0.67
vt 0.141443 0.67
vt 0.026874 0.67
vt 0.141443 0.67
vt 0.864215 0.412
vt 0.864215 0.412
vt 1.0 0.412
vt 0.864215 0.412
vt 1.0 0.412
vt 1.0 0.412
vt 0.973126 0.67
vt 0.973126 0.67
vt 0.864215 0.67
vt 0.973126 0.67
vt 0.864215 0.67
vt 0.864215 0.67
vt 0.54314 1.0
vt 0.301273 1.0
vt 0.301273 1.0
vt 0.54314 1.0
vt 0.301273 1.0
vt 0.54314 1.0
vt 0.222065 0.0
vt 0.141443 0.276
vt 0.141443 0.276
vt 0.222065 0.0
vt 0.141443 0.276
vt 0.222065 0.0
vt 0.770863 0.0
vt 0.770863 0.0
vt 0.864215 0.276
vt 0.770863 0.0
vt 0.864215 0.276
vt 0.864215 0.276
vt 0.141443 0.688
vt 0.141443 0.688
vt 0.141443 0.276
vt 0.141443 0.688
vt 0.141443 0.276
vt 0.141443 0.276
vt 0.864215 0.276
vt 0.864215 0.276
vt 0.864215 0.688
vt 0.864215 0.276
vt 0.864215 0.688
vt 0.864215 0.688
vt 0.864215 0.688
vt 0.864215 0.688
vt 0.710042 0.866
vt 0.864215 0.688
vt 0.710042 0.866
vt 0.710042 0.866
vt 0.257426 0.866
vt 0.257426 0.866
vt 0.141443 0.688
vt 0.257426 0.866
vt 0.141443 0.688
vt 0.141443 0.688
vt 0.575672 0.868
vt 0.54314 1.0
vt 0.54314 1.0
vt 0.575672 0.868
vt 0.54314 1.0
vt 0.575672 0.868
vt 0.301273 1.0
vt 0.254597 0.868
vt 0.254597 0.868
vt 0.301273 1.0
vt 0.254597 0.868
vt 0.301273 1.0
vt 0.254597 0.868
vt 0.301273 1.0
vt 0.54314 1.0
vt 0.254597 0.868
vt 0.54314 1.0
vt 0.575672 0.868
vt 0.864215 0.276
vt 0.770863 0.0
vt 0.141443 0.276
vt 0.770863 0.0
vt 0.864215 0.276
vt 0.222065 0.0
vt 0.141443 0.276
vt 0.770863 0.0
vt 0.222065 0.0
vt 0.222065 0.0
vt 0.864215 0.276
vt 0.141443 0.276
vt 0.141443 0.688
vt 0.257426 0.866
vt 0.710042 0.866
vt 0.141443 0.688
vt 0.710042 0.866
vt 0.864215 0.688
vt 0.864215 0.276
vt 0.141443 0.276
vt 0.141443 0.688
vt 0.864215 0.276
vt 0.141443 0.688
vt 0.864215 0.688
vt 0.141443 0.688
vt 0.864215 0.688
vt 0.710042 0.866
vt 0.141443 0.688
vt 0.710042 0.866
vt 0.257426 0.866
vt 0.864215 0.276
vt 0.864215 0.688
vt 0.141443 0.688
vt 0.864215 0.276
vt 0.141443 0.688
vt 0.141443 0.276
vt 0.0 0.412
vt 0.026874 0.67
vt 0.141443 0.67
vt 0.0 0.412
vt 0.141443 0.67
vt 0.141443 0.412
vt 0.0 0.412
vt 0.141443 0.412
vt 0.141443 0.67
vt 0.0 0.412
vt 0.141443 0.67
vt 0.026874 0.67
vt 0.864215 0.67
vt 0.973126 0.67
vt 1.0 0.412
vt 0.864215 0.67
vt 1.0 0.412
vt 0.864215 0.412
vt 0.864215 0.67
vt 0.864215 0.412
vt 1.0 0.412
vt 0.864215 0.67
vt 1.0 0.412
vt 0.973126 0.67
vt 0.254597 0.868
vt 0.575672 0.868
vt 0.54314 1.0
vt 0.254597 0.868
vt 0.54314 1.0
vt 0.301273 1.0
vt 0.589816 0.178
vt 0.53041 0.388
vt 0.451202 0.388
vt 0.589816 0.178
vt 0.451202 0.388
vt 0.393211 0.178
vt 0.589816 0.178
vt 0.65488 0.514
vt 0.53041 0.388
vt 0.65488 0.514
vt 0.548798 0.496
vt 0.53041 0.388
vt 0.321075 0.514
vt 0.393211 0.178
vt 0.429986 0.496
vt 0.393211 0.178
vt 0.451202 0.388
vt 0.429986 0.496
vt 0.411598 0.788
vt 0.425743 0.602
vt 0.414427 0.8
vt 0.425743 0.602
vt 0.428571 0.616
vt 0.414427 0.8
vt 0.420085 0.602
vt 0.425743 0.602
vt 0.411598 0.788
vt 0.420085 0.602
vt 0.411598 0.788
vt 0.403112 0.788
vt 0.400283 0.8
vt 0.417256 0.616
vt 0.403112 0.788
vt 0.417256 0.616
vt 0.420085 0.602
vt 0.403112 0.788
vt 0.425743 0.602
vt 0.429986 0.496
vt 0.428571 0.616
vt 0.429986 0.496
vt 0.432815 0.494
vt 0.428571 0.616
vt 0.420085 0.602
vt 0.425743 0.49
vt 0.425743 0.602
vt 0.425743 0.49
vt 0.429986 0.496
vt 0.425743 0.602
vt 0.417256 0.616
vt 0.422914 0.488
vt 0.420085 0.602
vt 0.422914 0.488
vt 0.425743 0.49
vt 0.420085 0.602
vt 0.564356 0.8
vt 0.553041 0.602
vt 0.567185 0.788
vt 0.564356 0.8
vt 0.550212 0.616
vt 0.553041 0.602
vt 0.567185 0.788
vt 0.553041 0.602
vt 0.558699 0.602
vt 0.567185 0.788
vt 0.558699 0.602
vt 0.575672 0.788
vt 0.575672 0.788
vt 0.561528 0.616
vt 0.578501 0.8
vt 0.575672 0.788
vt 0.558699 0.602
vt 0.561528 0.616
vt 0.550212 0.616
vt 0.548798 0.496
vt 0.553041 0.602
vt 0.550212 0.616
vt 0.545969 0.494
vt 0.548798 0.496
vt 0.553041 0.602
vt 0.553041 0.49
vt 0.558699 0.602
vt 0.553041 0.602
vt 0.548798 0.496
vt 0.553041 0.49
vt 0.558699 0.602
vt 0.55587 0.488
vt 0.561528 0.616
vt 0.558699 0.602
vt 0.553041 0.49
vt 0.55587 0.488
vt 0.427157 0.482
vt 0.550212 0.482
vt 0.547383 0.49
vt 0.427157 0.482
vt 0.547383 0.49
vt 0.4314 0.49
vt 0.429986 0.496
vt 0.548798 0.496
vt 0.545969 0.494
vt 0.429986 0.496
vt 0.545969 0.494
vt 0.432815 0.494
vt 0.4314 0.49
vt 0.547383 0.49
vt 0.548798 0.496
vt 0.4314 0.49
vt 0.548798 0.496
vt 0.429986 0.496

# 270 Vertex Normals
vn 0.0 1.0 0.0
vn 0.0 1.0 0.0
vn 0.0 1.0 0.0
vn 0.0 1.0 0.0
vn 0.0 1.0 0.0
vn 0.0 1.0 0.0
vn 0.0 -1.0 0.0
vn 0.0 -1.0 0.0
vn 0.0 -1.0 0.0
vn 0.0 -1.0 0.0
vn 0.0 -1.0 0.0
vn 0.0 -1.0 0.0
vn 0.0 1.0 0.0
vn 0.0 1.0 0.0
vn 0.0 1.0 0.0
vn 0.0 1.0 0.0
vn 0.0 1.0 0.0
vn 0.0 1.0 0.0
vn 0.0 -1.0 0.0
vn 0.0 -1.0 0.0
vn 0.0 -1.0 0.0
vn 0.0 -1.0 0.0
vn 0.0 -1.0 0.0
vn 0.0 -1.0 0.0
vn 0.0 1.0 0.0
vn 0.0 1.0 0.0
vn 0.0 1.0 0.0
vn 0.0 1.0 0.0
vn 0.0 1.0 0.0
vn 0.0 1.0 0.0
vn 0.0 -1.0 0.0
vn 0.0 -1.0 0.0
vn 0.0 -1.0 0.0
vn 0.0 -1.0 0.0
vn 0.0 -1.0 0.0
vn 0.0 -1.0 0.0
vn 0.0 -1.0 0.0
vn 0.0 -1.0 0.0
vn 0.0 -1.0 0.0
vn 0.0 -1.0 0.0
vn 0.0 -1.0 0.0
vn 0.0 -1.0 0.0
vn 0.924261 0.38176 0.0
vn 0.980883 0.1946 0.0
vn 0.980883 0.1946 0.0
vn 0.924261 0.38176 0.0
vn 0.980883 0.1946 0.0
vn 0.924261 0.38176 0.0
vn -0.902134 0.431455 0.0
vn -0.902134 0.431456 0.0
vn -0.955773 0.294104 0.0
vn -0.902134 0.431455 0.0
vn -0.955773 0.294104 0.0
vn -0.989129 0.147052 0.0
vn 0.970663 -0.240442 0.0
vn 0.876784 -0.480885 0.0
vn 0.980883 0.1946 0.0
vn 0.970663 -0.240442 0.0
vn 0.980883 0.1946 0.0
vn 0.980883 0.1946 0.0
vn -0.989129 0.147052 0.0
vn -0.955773 0.294104 0.0
vn -0.959332 -0.282279 0.0
vn -0.989129 0.147052 0.0
vn -0.959332 -0.282279 0.0
vn -0.825393 -0.564558 0.0
vn -0.825393 -0.564558 0.0
vn -0.959332 -0.282279 0.0
vn -0.632464 -0.77459 0.0
vn -0.825393 -0.564558 0.0
vn -0.632464 -0.77459 0.0
vn -0.632464 -0.77459 0.0
vn 0.735437 -0.677593 0.0
vn 0.735437 -0.677593 0.0
vn 0.876784 -0.480885 0.0
vn 0.735437 -0.677593 0.0
vn 0.876784 -0.480885 0.0
vn 0.970663 -0.240442 0.0
vn -0.944304 -0.329076 0.0
vn -0.944304 -0.329076 0.0
vn -0.944304 -0.329076 0.0
vn -0.944304 -0.329076 0.0
vn -0.944304 -0.329076 0.0
vn -0.944304 -0.329076 0.0
vn 0.894427 -0.447214 0.0
vn 0.894427 -0.447214 0.0
vn 0.894427 -0.447214 0.0
vn 0.894427 -0.447214 0.0
vn 0.894427 -0.447214 0.0
vn 0.894427 -0.447214 0.0
vn 0.0 -0.65362 -0.756823
vn 0.0 -0.65362 -0.756823
vn 0.0 -0.65362 -0.756823
vn 0.0 -0.65362 -0.756823
vn 0.0 -0.65362 -0.756823
vn 0.0 -0.65362 -0.756823
vn 0.0 0.50845 -0.861092
vn 0.0 0.506201 -0.862416
vn 0.0 0.507326 -0.861754
vn 0.0 0.60185 0.798609
vn 0.0 0.490204 0.871608
vn 0.0 0.60185 0.798609
vn 0.0 0.507326 -0.861754
vn 0.0 0.506201 -0.862416
vn 0.0 0.506201 -0.862416
vn 0.0 0.60185 0.798609
vn 0.0 0.490204 0.871608
vn 0.0 0.490204 0.871608
vn 0.0 0.510614 -0.85981
vn 0.0 0.511654 -0.859192
vn 0.0 0.511654 -0.859192
vn 0.0 0.510614 -0.85981
vn 0.0 0.511654 -0.859192
vn 0.0 0.510614 -0.85981
vn 0.0 0.50845 -0.861092
vn 0.0 0.507326 -0.861754
vn 0.0 0.510614 -0.85981
vn 0.0 0.50845 -0.861092
vn 0.0 0.510614 -0.85981
vn 0.0 0.510614 -0.85981
vn 0.0 0.188285 0.982114
vn 0.0 0.188285 0.982114
vn 0.0 0.0 1.0
vn 0.0 0.188285 0.982114
vn 0.0 0.0 1.0
vn 0.0 0.0 1.0
vn 0.0 0.490204 0.871608
vn 0.0 0.188285 0.982114
vn 0.0 0.188285 0.982114
vn 0.0 0.490204 0.871608
vn 0.0 0.188285 0.982114
vn 0.0 0.490204 0.871608
vn 0.0 0.433185 -0.901305
vn 0.0 0.433185 -0.901305
vn 0.0 0.433185 -0.901305
vn 0.0 0.433185 -0.901305
vn 0.0 0.433185 -0.901305
vn 0.0 0.433185 -0.901305
vn 0.0 -0.204863 0.978791
vn 0.0 -0.204863 0.978791
vn 0.0 -0.204863 0.978791
vn 0.0 -0.204863 0.978791
vn 0.0 -0.204863 0.978791
vn 0.0 -0.204863 0.978791
vn 0.0 0.433185 -0.901305
vn 0.0 0.433185 -0.901305
vn 0.0 0.433185 -0.901305
vn 0.0 0.433185 -0.901305
vn 0.0 0.433185 -0.901305
vn 0.0 0.433185 -0.901305
vn 0.0 -0.204863 0.978791
vn 0.0 -0.204863 0.978791
vn 0.0 -0.204863 0.978791
vn 0.0 -0.204863 0.978791
vn 0.0 -0.204863 0.978791
vn 0.0 -0.204863 0.978791
vn 0.0 -0.354227 0.935159
vn 0.0 -0.354227 0.935159
vn 0.0 -0.354227 0.935159
vn 0.0 -0.354227 0.935159
vn 0.0 -0.354227 0.935159
vn 0.0 -0.354227 0.935159
vn 0.34872 -0.886981 0.302751
vn 0.710884 -0.641496 0.288316
vn -0.361272 -0.882261 0.301825
vn 0.34872 -0.886981 0.302751
vn -0.361272 -0.882261 0.301825
vn -0.699911 -0.657535 0.278879
vn 0.34872 -0.886981 0.302751
vn 0.911388 -0.342554 0.228098
vn 0.710884 -0.641496 0.288316
vn 0.911388 -0.342554 0.228098
vn 0.639412 -0.296213 0.709514
vn 0.710884 -0.641496 0.288316
vn -0.884048 -0.405424 0.232574
vn -0.699911 -0.657535 0.278879
vn -0.7416 -0.470498 0.478185
vn -0.699911 -0.657535 0.278879
vn -0.361272 -0.882261 0.301825
vn -0.7416 -0.470498 0.478185
vn -0.39151 0.801988 0.451149
vn -0.666502 0.424489 0.612849
vn -0.966636 0.198951 0.161349
vn -0.666502 0.424489 0.612849
vn -0.959786 0.110817 0.257935
vn -0.966636 0.198951 0.161349
vn 0.619432 0.578006 0.531237
vn -0.666502 0.424489 0.612849
vn -0.39151 0.801988 0.451149
vn 0.619432 0.578006 0.531237
vn -0.39151 0.801988 0.451149
vn 0.785382 0.567039 0.248278
vn 0.960055 0.269251 0.076152
vn 0.967909 0.219528 0.122313
vn 0.785382 0.567039 0.248278
vn 0.967909 0.219528 0.122313
vn 0.619432 0.578006 0.531237
vn 0.785382 0.567039 0.248278
vn -0.666502 0.424489 0.612849
vn -0.807995 -0.116003 0.577656
vn -0.959786 0.110817 0.257935
vn -0.807995 -0.116003 0.577656
vn -0.957088 0.064123 0.282614
vn -0.959786 0.110817 0.257935
vn 0.619432 0.578006 0.531237
vn 0.257504 0.364066 0.895069
vn -0.666502 0.424489 0.612849
vn -0.168037 0.346131 0.923015
vn -0.807995 -0.116003 0.577656
vn -0.666502 0.424489 0.612849
vn 0.967909 0.219528 0.122313
vn 0.951858 0.161413 0.260601
vn 0.619432 0.578006 0.531237
vn 0.951858 0.161413 0.260601
vn 0.574378 0.323078 0.752137
vn 0.619432 0.578006 0.531237
vn 0.966636 0.198951 0.161349
vn 0.666502 0.424489 0.612849
vn 0.39151 0.801988 0.451149
vn 0.966636 0.198951 0.161349
vn 0.959786 0.110817 0.257935
vn 0.666502 0.424489 0.612849
vn 0.39151 0.801988 0.451149
vn 0.666502 0.424489 0.612849
vn -0.619432 0.578006 0.531237
vn 0.39151 0.801988 0.451149
vn -0.619432 0.578006 0.531237
vn -0.785382 0.567039 0.248278
vn -0.785382 0.567039 0.248278
vn -0.967909 0.219528 0.122313
vn -0.960055 0.269251 0.076152
vn -0.785382 0.567039 0.248278
vn -0.619432 0.578006 0.531237
vn -0.967909 0.219528 0.122313
vn 0.959786 0.110817 0.257935
vn 0.651615 -0.096978 0.752325
vn 0.666502 0.424489 0.612849
vn 0.959786 0.110817 0.257935
vn 0.957088 0.064123 0.282614
vn 0.651615 -0.096978 0.752325
vn 0.666502 0.424489 0.612849
vn -0.257504 0.364066 0.895069
vn -0.619432 0.578006 0.531237
vn 0.666502 0.424489 0.612849
vn 0.651615 -0.096978 0.752325
vn 0.168037 0.346131 0.923015
vn -0.619432 0.578006 0.531237
vn -0.951858 0.161413 0.260601
vn -0.967909 0.219528 0.122313
vn -0.619432 0.578006 0.531237
vn -0.574378 0.323078 0.752137
vn -0.951858 0.161413 0.260601
vn 0.0 0.780869 0.624695
vn 0.0 0.780869 0.624695
vn 0.0 0.492993 0.870033
vn 0.0 0.780869 0.624695
vn 0.0 0.492993 0.870033
vn 0.0 0.058744 0.998273
vn -0.488218 -0.820233 0.298094
vn 0.314484 -0.660457 0.681833
vn 0.0 -0.989949 -0.141421
vn -0.488218 -0.820233 0.298094
vn 0.0 -0.989949 -0.141421
vn 0.0 -0.989949 -0.141421
vn 0.0 0.058744 0.998273
vn 0.0 0.492993 0.870033
vn 0.639412 -0.296213 0.709514
vn 0.0 0.058744 0.998273
vn 0.639412 -0.296213 0.709514
vn -0.7416 -0.470498 0.478185

# head, 90 grouped triangles

usemtl main
o head
g head

f 1/1/1 2/2/2 3/3/3
f 1/4/4 3/5/5 4/6/6
f 5/7/7 6/8/8 7/9/9
f 5/10/10 7/11/11 8/12/12
f 9/13/13 10/14/14 11/15/15
f 9/16/16 11/17/17 12/18/18
f 13/19/19 14/20/20 15/21/21
f 13/22/22 15/23/23 16/24/24
f 17/25/25 18/26/26 19/27/27
f 17/28/28 19/29/29 20/30/30
f 21/31/31 22/32/32 23/33/33
f 21/34/34 23/35/35 24/36/36
f 25/37/37 26/38/38 27/39/39
f 25/40/40 27/41/41 28/42/42
f 29/43/43 30/44/44 31/45/45
f 29/46/46 31/47/47 32/48/48
f 33/49/49 34/50/50 35/51/51
f 33/52/52 35/53/53 36/54/54
f 37/55/55 38/56/56 31/57/57
f 37/58/58 31/59/59 30/60/60
f 36/61/61 35/62/62 39/63/63
f 36/64/64 39/65/65 40/66/66
f 40/67/67 39/68/68 41/69/69
f 40/70/70 41/71/71 42/72/72
f 43/73/73 44/74/74 38/75/75
f 43/76/76 38/77/77 37/78/78
f 45/79/79 46/80/80 47/81/81
f 45/82/82 47/83/83 48/84/84
f 49/85/85 50/86/86 51/87/87
f 49/88/88 51/89/89 52/90/90
f 53/91/91 54/92/92 55/93/93
f 53/94/94 55/95/95 56/96/96
f 57/97/97 58/98/98 59/99/99
f 60/100/100 61/101/101 62/102/102
f 59/103/103 58/104/104 63/105/105
f 62/106/106 61/107/107 64/108/108
f 65/109/109 66/110/110 67/111/111
f 65/112/112 67/113/113 68/114/114
f 57/115/115 59/116/116 65/117/117
f 57/118/118 65/119/119 68/120/120
f 69/121/121 70/122/122 71/123/123
f 69/124/124 71/125/125 72/126/126
f 61/127/127 70/128/128 69/129/129
f 61/130/130 69/131/131 64/132/132
f 73/133/133 74/134/134 75/135/135
f 73/136/136 75/137/137 76/138/138
f 77/139/139 78/140/140 79/141/141
f 77/142/142 79/143/143 80/144/144
f 81/145/145 82/146/146 83/147/147
f 81/148/148 83/149/149 84/150/150
f 85/151/151 86/152/152 87/153/153
f 85/154/154 87/155/155 88/156/156
f 89/157/157 90/158/158 91/159/159
f 89/160/160 91/161/161 92/162/162
f 93/163/163 94/164/164 95/165/165
f 93/166/166 95/167/167 96/168/168
f 93/169/169 97/170/170 94/171/171
f 97/172/172 98/173/173 94/174/174
f 99/175/175 96/176/176 100/177/177
f 96/178/178 95/179/179 100/180/180
f 101/181/181 102/182/182 103/183/183
f 102/184/184 104/185/185 103/186/186
f 105/187/187 102/188/188 101/189/189
f 105/190/190 101/191/191 106/192/192
f 107/193/193 108/194/194 106/195/195
f 108/196/196 105/197/197 106/198/198
f 102/199/199 100/200/200 104/201/201
f 100/202/202 109/203/203 104/204/204
f 105/205/205 110/206/206 102/207/207
f 110/208/208 100/209/209 102/210/210
f 108/211/211 111/212/212 105/213/213
f 111/214/214 110/215/215 105/216/216
f 112/217/217 113/218/218 114/219/219
f 112/220/220 115/221/221 113/222/222
f 114/223/223 113/224/224 116/225/225
f 114/226/226 116/227/227 117/228/228
f 117/229/229 118/230/230 119/231/231
f 117/232/232 116/233/233 118/234/234
f 115/235/235 98/236/236 113/237/237
f 115/238/238 120/239/239 98/240/240
f 113/241/241 121/242/242 116/243/243
f 113/244/244 98/245/245 121/246/246
f 116/247/247 122/248/248 118/249/249
f 116/250/250 121/251/251 122/252/252
f 123/253/253 124/254/254 125/255/255
f 123/256/256 125/257/257 126/258/258
f 100/259/259 98/260/260 120/261/261
f 100/262/262 120/263/263 127/264/264
f 126/265/265 125/266/266 98/267/267
f 126/268/268 98/269/269 100/270/270
