# Wavefront OBJ file
# Exported by Misfit Model 3D 1.3.8
# Mon Jan 20 15:25:47 2020

mtllib fm5_head.mtl

# 54 Vertices
v -108.0 207.0 308.0
v -77.0 29.0 297.0
v -77.0 34.0 310.0
v -108.0 211.0 317.0
v -114.0 207.0 308.0
v -84.0 29.0 297.0
v -114.0 211.0 317.0
v -86.0 34.0 310.0
v 98.0 34.0 310.0
v 98.0 29.0 297.0
v 128.0 207.0 308.0
v 128.0 211.0 317.0
v 135.0 207.0 308.0
v 104.0 29.0 297.0
v 107.0 34.0 310.0
v 135.0 211.0 317.0
v -105.0 35.0 320.0
v -90.0 29.0 297.0
v 112.0 29.0 297.0
v 125.0 35.0 320.0
v 125.0 91.0 -68.0
v 116.0 84.0 -63.0
v 77.0 -52.0 274.0
v 116.0 -51.0 -82.0
v -107.0 91.0 -68.0
v -97.0 84.0 -63.0
v -54.0 -52.0 274.0
v -97.0 -51.0 -82.0
v 104.0 207.0 3.0
v 137.0 207.0 -85.0
v -117.0 207.0 -85.0
v -84.0 207.0 3.0
v 125.0 207.0 291.0
v 137.0 207.0 308.0
v -105.0 207.0 291.0
v -117.0 207.0 308.0
v 118.0 221.0 288.0
v -98.0 221.0 288.0
v -79.0 221.0 6.0
v 99.0 221.0 6.0
v 67.0 -52.0 274.0
v 95.0 22.0 295.0
v -74.0 22.0 295.0
v -45.0 -52.0 274.0
v 46.0 -52.0 187.0
v -28.0 -52.0 187.0
v -112.025974 216.663642 -92.069808
v 136.233767 216.663642 -92.06983
v -112.025975 216.663642 -64.878193
v 136.233766 216.663642 -64.878215
v 136.233767 -53.663631 -92.069859
v -112.025974 -53.663631 -92.069837
v 136.233766 -53.663631 -64.878244
v -112.025975 -53.663631 -64.878222

# 186 Texture Coordinates
vt 0.035433 0.948718
vt 0.15748 0.296703
vt 0.15748 0.315018
vt 0.035433 0.96337
vt 0.035433 0.948718
vt 0.15748 0.315018
vt 0.035433 0.948718
vt 0.011811 0.948718
vt 0.129921 0.296703
vt 0.035433 0.948718
vt 0.129921 0.296703
vt 0.15748 0.296703
vt 0.011811 0.96337
vt 0.122047 0.315018
vt 0.129921 0.296703
vt 0.011811 0.948718
vt 0.011811 0.96337
vt 0.129921 0.296703
vt 0.846457 0.315018
vt 0.846457 0.296703
vt 0.964567 0.948718
vt 0.846457 0.315018
vt 0.964567 0.948718
vt 0.964567 0.96337
vt 0.992126 0.948718
vt 0.964567 0.948718
vt 0.846457 0.296703
vt 0.992126 0.948718
vt 0.846457 0.296703
vt 0.870079 0.296703
vt 0.870079 0.296703
vt 0.88189 0.315018
vt 0.992126 0.96337
vt 0.870079 0.296703
vt 0.992126 0.96337
vt 0.992126 0.948718
vt 0.047244 0.318681
vt 0.106299 0.296703
vt 0.901575 0.296703
vt 0.047244 0.318681
vt 0.901575 0.296703
vt 0.952756 0.318681
vt 0.952756 0.52381
vt 0.952756 0.318681
vt 0.901575 0.296703
vt 0.952756 0.52381
vt 0.901575 0.296703
vt 0.917323 0.498168
vt 0.917323 0.498168
vt 0.901575 0.296703
vt 0.76378 0.0
vt 0.917323 0.498168
vt 0.76378 0.0
vt 0.917323 0.003663
vt 0.106299 0.296703
vt 0.047244 0.318681
vt 0.03937 0.52381
vt 0.07874 0.498168
vt 0.106299 0.296703
vt 0.03937 0.52381
vt 0.248031 0.0
vt 0.106299 0.296703
vt 0.07874 0.498168
vt 0.07874 0.003663
vt 0.248031 0.0
vt 0.07874 0.498168
vt 0.870079 0.948718
vt 1.0 0.948718
vt 0.0 0.948718
vt 0.870079 0.948718
vt 0.0 0.948718
vt 0.129921 0.948718
vt 0.870079 0.948718
vt 0.952756 0.948718
vt 1.0 0.948718
vt 0.870079 0.948718
vt 1.0 0.948718
vt 1.0 0.948718
vt 0.047244 0.948718
vt 0.0 0.948718
vt 1.0 0.948718
vt 0.047244 0.948718
vt 1.0 0.948718
vt 0.952756 0.948718
vt 0.0 0.948718
vt 0.047244 0.948718
vt 0.129921 0.948718
vt 0.0 0.948718
vt 0.129921 0.948718
vt 0.0 0.948718
vt 0.952756 0.948718
vt 0.870079 0.948718
vt 0.925197 1.0
vt 0.047244 0.948718
vt 0.074803 1.0
vt 0.129921 0.948718
vt 0.925197 1.0
vt 0.074803 1.0
vt 0.047244 0.948718
vt 0.925197 1.0
vt 0.047244 0.948718
vt 0.952756 0.948718
vt 0.129921 0.948718
vt 0.074803 1.0
vt 0.149606 1.0
vt 0.149606 1.0
vt 0.850394 1.0
vt 0.870079 0.948718
vt 0.149606 1.0
vt 0.870079 0.948718
vt 0.129921 0.948718
vt 0.870079 0.948718
vt 0.850394 1.0
vt 0.925197 1.0
vt 0.724409 0.0
vt 0.76378 0.0
vt 0.901575 0.296703
vt 0.724409 0.0
vt 0.901575 0.296703
vt 0.834646 0.271062
vt 0.169291 0.271062
vt 0.106299 0.296703
vt 0.248031 0.0
vt 0.169291 0.271062
vt 0.248031 0.0
vt 0.283465 0.0
vt 0.283465 0.0
vt 0.248031 0.0
vt 0.07874 0.003663
vt 0.106299 0.296703
vt 0.169291 0.271062
vt 0.834646 0.271062
vt 0.106299 0.296703
vt 0.834646 0.271062
vt 0.901575 0.296703
vt 0.917323 0.003663
vt 0.76378 0.0
vt 0.641732 0.0
vt 0.641732 0.0
vt 0.76378 0.0
vt 0.724409 0.0
vt 0.641732 0.0
vt 0.350394 0.0
vt 0.07874 0.003663
vt 0.641732 0.0
vt 0.07874 0.003663
vt 0.917323 0.003663
vt 0.283465 0.0
vt 0.07874 0.003663
vt 0.350394 0.0
vt 0.0 1.0
vt 0.0 0.0
vt 1.0 0.0
vt 0.0 1.0
vt 0.0 0.0
vt 1.0 0.0
vt 0.0 1.0
vt 0.0 0.0
vt 1.0 0.0
vt 0.0 1.0
vt 0.0 0.0
vt 1.0 0.0
vt 1.0 0.0
vt 0.0 0.0
vt 0.0 1.0
vt 1.0 0.0
vt 0.0 0.0
vt 0.0 1.0
vt 1.0 0.0
vt 0.0 0.0
vt 0.0 1.0
vt 1.0 0.0
vt 0.0 0.0
vt 0.0 1.0
vt 1.0 0.0
vt 0.0 0.0
vt 0.0 1.0
vt 1.0 0.0
vt 0.0 0.0
vt 0.0 1.0
vt 1.0 0.0
vt 0.0 0.0
vt 0.0 1.0
vt 1.0 0.0
vt 0.0 0.0
vt 0.0 1.0

# 186 Vertex Normals
vn -0.667073 -0.160869 0.727417
vn -0.668912 -0.161338 0.725622
vn -0.981871 -0.175103 0.072582
vn -0.981497 -0.174976 0.077767
vn -0.667073 -0.160869 0.727417
vn -0.981871 -0.175103 0.072582
vn -0.667073 -0.160869 0.727417
vn 0.0 -0.06168 0.998096
vn 0.426079 0.012395 0.904601
vn -0.667073 -0.160869 0.727417
vn 0.426079 0.012395 0.904601
vn -0.668912 -0.161338 0.725622
vn 0.986801 0.161708 0.008659
vn 0.984004 0.151987 0.092929
vn 0.696978 0.070492 0.71362
vn 0.982489 0.170264 -0.075673
vn 0.986801 0.161708 0.008659
vn 0.986801 0.161708 0.008659
vn 0.982993 -0.169648 0.070321
vn 0.427024 -0.127294 0.895236
vn 0.852152 -0.173803 0.493589
vn 0.982993 -0.169648 0.070321
vn 0.852152 -0.173803 0.493589
vn 0.982641 -0.169529 0.075346
vn 0.0 -0.06168 0.998096
vn 0.852152 -0.173803 0.493589
vn 0.427024 -0.127294 0.895236
vn 0.0 -0.06168 0.998096
vn 0.427024 -0.127294 0.895236
vn -0.640235 0.056394 0.766106
vn -0.867964 0.116077 0.482872
vn -0.974654 0.147532 0.168177
vn -0.9856 0.162889 0.045387
vn -0.9856 0.162889 0.045387
vn -0.9856 0.162889 0.045387
vn -0.981335 0.175733 -0.078104
vn -0.182489 -0.97389 0.135044
vn -0.378358 -0.744721 0.54976
vn 0.341714 -0.787071 0.513567
vn -0.182489 -0.97389 0.135044
vn 0.341714 -0.787071 0.513567
vn 0.309168 -0.948231 0.072618
vn 0.573307 -0.810897 -0.117322
vn 0.309168 -0.948231 0.072618
vn 0.341714 -0.787071 0.513567
vn 0.573307 -0.810897 -0.117322
vn 0.341714 -0.787071 0.513567
vn 0.898162 -0.439167 -0.020902
vn 0.898162 -0.439167 -0.020902
vn 0.341714 -0.787071 0.513567
vn 0.557595 -0.775549 0.295991
vn 0.898162 -0.439167 -0.020902
vn 0.700205 -0.609555 0.371693
vn 0.69975 -0.710476 0.074662
vn -0.378358 -0.744721 0.54976
vn -0.182489 -0.97389 0.135044
vn -0.525079 -0.842736 -0.118694
vn -0.889437 -0.456816 -0.014892
vn -0.378358 -0.744721 0.54976
vn -0.525079 -0.842736 -0.118694
vn -0.563618 -0.578125 0.590006
vn -0.378358 -0.744721 0.54976
vn -0.889437 -0.456816 -0.014892
vn -0.699096 -0.710242 0.082592
vn -0.652208 -0.327374 0.683704
vn -0.889437 -0.456816 -0.014892
vn 0.310984 0.882236 -0.35348
vn 0.0 1.0 0.0
vn 0.0 1.0 0.0
vn 0.310984 0.882236 -0.35348
vn 0.0 1.0 0.0
vn -0.404739 0.88122 -0.244207
vn 0.310984 0.882236 -0.35348
vn 0.305659 0.900085 0.310516
vn 0.0 1.0 0.0
vn 0.310984 0.882236 -0.35348
vn 0.0 1.0 0.0
vn 0.0 1.0 0.0
vn -0.204776 0.878813 0.430992
vn 0.0 1.0 0.0
vn 0.0 1.0 0.0
vn -0.204776 0.878813 0.430992
vn 0.0 1.0 0.0
vn 0.305659 0.900085 0.310516
vn 0.0 1.0 0.0
vn -0.204776 0.878813 0.430992
vn -0.404739 0.88122 -0.244207
vn 0.0 1.0 0.0
vn -0.404739 0.88122 -0.244207
vn 0.0 1.0 0.0
vn 0.305659 0.900085 0.310516
vn 0.310984 0.882236 -0.35348
vn 0.642497 0.421076 0.640229
vn -0.204776 0.878813 0.430992
vn -0.814508 0.44073 0.377272
vn -0.404739 0.88122 -0.244207
vn 0.397334 0.377867 0.836267
vn -0.626579 0.44969 0.636535
vn -0.204776 0.878813 0.430992
vn 0.397334 0.377867 0.836267
vn -0.204776 0.878813 0.430992
vn 0.305659 0.900085 0.310516
vn -0.404739 0.88122 -0.244207
vn -0.91782 0.391749 -0.06433
vn -0.397538 0.325793 -0.857801
vn -0.397538 0.325793 -0.857801
vn 0.621068 0.369879 -0.690987
vn 0.310984 0.882236 -0.35348
vn -0.397538 0.325793 -0.857801
vn 0.310984 0.882236 -0.35348
vn -0.404739 0.88122 -0.244207
vn 0.310984 0.882236 -0.35348
vn 0.621068 0.369879 -0.690987
vn 0.91782 0.391749 -0.06433
vn -0.000367 -0.626319 0.779567
vn 0.557595 -0.775549 0.295991
vn 0.341714 -0.787071 0.513567
vn -0.000367 -0.626319 0.779567
vn 0.341714 -0.787071 0.513567
vn -0.000302 -0.274043 0.961717
vn 0.000307 -0.273499 0.961872
vn -0.378358 -0.744721 0.54976
vn -0.563618 -0.578125 0.590006
vn 0.000307 -0.273499 0.961872
vn -0.563618 -0.578125 0.590006
vn -0.003335 -0.921549 0.388247
vn -0.003335 -0.921549 0.388247
vn -0.321261 -0.680529 0.658537
vn -0.002056 -0.999994 -0.002963
vn -0.378358 -0.744721 0.54976
vn 0.000307 -0.273499 0.961872
vn -0.000302 -0.274043 0.961717
vn -0.378358 -0.744721 0.54976
vn -0.000302 -0.274043 0.961717
vn 0.341714 -0.787071 0.513567
vn 0.444017 -0.894851 0.045725
vn 0.557595 -0.775549 0.295991
vn 0.001507 -0.999996 -0.002396
vn 0.001507 -0.999996 -0.002396
vn 0.31359 -0.89822 0.307998
vn -0.000367 -0.626319 0.779567
vn 0.001507 -0.999996 -0.002396
vn -0.004113 -0.999988 -0.002662
vn -0.002056 -0.999994 -0.002963
vn 0.001507 -0.999996 -0.002396
vn -0.002056 -0.999994 -0.002963
vn 0.003015 -0.999991 -0.002933
vn -0.003335 -0.921549 0.388247
vn -0.241696 -0.970001 0.02608
vn -0.004113 -0.999988 -0.002662
vn -0.0 1.0 0.0
vn -0.0 1.0 0.0
vn 0.0 1.0 0.0
vn -0.0 1.0 0.0
vn -0.0 1.0 0.0
vn -0.0 1.0 0.0
vn 0.0 -1.0 0.0
vn 0.0 -1.0 0.0
vn -0.0 -1.0 0.0
vn 0.0 -1.0 0.0
vn 0.0 -1.0 0.0
vn 0.0 -1.0 0.0
vn -1.0 0.0 -0.0
vn -1.0 0.0 -0.0
vn -1.0 0.0 -0.0
vn -1.0 0.0 -0.0
vn -1.0 0.0 -0.0
vn -1.0 0.0 -0.0
vn 1.0 0.0 0.0
vn 1.0 0.0 0.0
vn 1.0 0.0 0.0
vn 1.0 0.0 0.0
vn 1.0 0.0 0.0
vn 1.0 0.0 0.0
vn 0.0 -0.0 1.0
vn 0.0 -0.0 1.0
vn 0.0 -0.0 1.0
vn 0.0 -0.0 1.0
vn 0.0 -0.0 1.0
vn 0.0 -0.0 1.0
vn -0.0 0.0 -1.0
vn -0.0 0.0 -1.0
vn -0.0 0.0 -1.0
vn -0.0 0.0 -1.0
vn -0.0 0.0 -1.0
vn -0.0 0.0 -1.0

# main, 62 grouped triangles

o main
g main

f 1/1/1 2/2/2 3/3/3
f 4/4/4 1/5/5 3/6/6
f 1/7/7 5/8/8 6/9/9
f 1/10/10 6/11/11 2/12/12
f 7/13/13 8/14/14 6/15/15
f 5/16/16 7/17/17 6/18/18
f 9/19/19 10/20/20 11/21/21
f 9/22/22 11/23/23 12/24/24
f 13/25/25 11/26/26 10/27/27
f 13/28/28 10/29/29 14/30/30
f 14/31/31 15/32/32 16/33/33
f 14/34/34 16/35/35 13/36/36
f 17/37/37 18/38/38 19/39/39
f 17/40/40 19/41/41 20/42/42
f 21/43/43 20/44/44 19/45/45
f 21/46/46 19/47/47 22/48/48
f 22/49/49 19/50/50 23/51/51
f 22/52/52 23/53/53 24/54/54
f 18/55/55 17/56/56 25/57/57
f 26/58/58 18/59/59 25/60/60
f 27/61/61 18/62/62 26/63/63
f 28/64/64 27/65/65 26/66/66
f 29/67/67 30/68/68 31/69/69
f 29/70/70 31/71/71 32/72/72
f 29/73/73 33/74/74 34/75/75
f 29/76/76 34/77/77 30/78/78
f 35/79/79 36/80/80 34/81/81
f 35/82/82 34/83/83 33/84/84
f 36/85/85 35/86/86 32/87/87
f 36/88/88 32/89/89 31/90/90
f 33/91/91 29/92/92 37/93/93
f 35/94/94 38/95/95 32/96/96
f 37/97/97 38/98/98 35/99/99
f 37/100/100 35/101/101 33/102/102
f 32/103/103 38/104/104 39/105/105
f 39/106/106 40/107/107 29/108/108
f 39/109/109 29/110/110 32/111/111
f 29/112/112 40/113/113 37/114/114
f 41/115/115 23/116/116 19/117/117
f 41/118/118 19/119/119 42/120/120
f 43/121/121 18/122/122 27/123/123
f 43/124/124 27/125/125 44/126/126
f 44/127/127 27/128/128 28/129/129
f 18/130/130 43/131/131 42/132/132
f 18/133/133 42/134/134 19/135/135
f 24/136/136 23/137/137 45/138/138
f 45/139/139 23/140/140 41/141/141
f 45/142/142 46/143/143 28/144/144
f 45/145/145 28/146/146 24/147/147
f 44/148/148 28/149/149 46/150/150
f 49/151/151 48/152/152 47/153/153
f 49/154/154 50/155/155 48/156/156
f 53/157/157 52/158/158 51/159/159
f 53/160/160 54/161/161 52/162/162
f 47/163/163 52/164/164 49/165/165
f 52/166/166 54/167/167 49/168/168
f 51/169/169 48/170/170 53/171/171
f 48/172/172 50/173/173 53/174/174
f 54/175/175 53/176/176 49/177/177
f 53/178/178 50/179/179 49/180/180
f 51/181/181 52/182/182 48/183/183
f 52/184/184 47/185/185 48/186/186
